<svg width="15" height="8" viewBox="0 0 15 8" fill="none" xmlns="http://www.w3.org/2000/svg">
    <path d="M7.48824 7.9973C7.23833 7.99782 6.99614 7.90487 6.80372 7.73458L0.38638 2.02324C0.167959 1.82936 0.0306013 1.55074 0.00452583 1.2487C-0.0215497 0.946653 0.0657924 0.645916 0.247337 0.412646C0.428882 0.179376 0.689759 0.0326817 0.972578 0.00483352C1.2554 -0.0230146 1.53699 0.0702645 1.75541 0.264151L7.48824 5.38151L13.2211 0.446915C13.3305 0.352031 13.4563 0.281175 13.5915 0.238417C13.7266 0.19566 13.8683 0.181846 14.0084 0.197768C14.1486 0.213691 14.2844 0.259035 14.4081 0.331196C14.5318 0.403358 14.6409 0.500913 14.7291 0.618254C14.8271 0.735704 14.9013 0.873491 14.947 1.02298C14.9928 1.17248 15.0092 1.33045 14.9951 1.48702C14.9811 1.64358 14.9369 1.79535 14.8653 1.93283C14.7938 2.07031 14.6965 2.19053 14.5794 2.28596L8.16206 7.80311C7.9641 7.94649 7.72685 8.01486 7.48824 7.9973Z" fill="#219653"/>
</svg>