<svg width="15" height="8" viewBox="0 0 15 8" fill="none" xmlns="http://www.w3.org/2000/svg">
<path d="M7.27321 7.27753C7.03048 7.278 6.79525 7.19342 6.60835 7.03845L0.375285 1.84115C0.163135 1.66471 0.0297226 1.41117 0.00439587 1.13631C-0.0209309 0.861453 0.0639031 0.587782 0.240235 0.375507C0.416567 0.163232 0.669953 0.0297403 0.94465 0.0043985C1.21935 -0.0209433 1.49285 0.0639406 1.705 0.240377L7.27321 4.89716L12.8414 0.406692C12.9477 0.320348 13.0699 0.255868 13.2012 0.21696C13.3324 0.178051 13.4701 0.16548 13.6062 0.179969C13.7423 0.194458 13.8742 0.235721 13.9943 0.301388C14.1145 0.367055 14.2204 0.45583 14.3062 0.56261C14.4013 0.669489 14.4734 0.794876 14.5178 0.930914C14.5623 1.06695 14.5782 1.21071 14.5645 1.35318C14.5509 1.49565 14.508 1.63377 14.4385 1.75888C14.369 1.88398 14.2744 1.99338 14.1607 2.08022L7.92768 7.10082C7.7354 7.23129 7.50497 7.29351 7.27321 7.27753Z" fill="#222222"/>
</svg>
