<svg width="198" height="32" viewBox="0 0 198 32" fill="none" xmlns="http://www.w3.org/2000/svg">
<path d="M11.491 31.0705L0.5 0H6.60611L14.4219 22.6864L22.2378 0H28.3439L17.3529 31.0705H11.491Z" fill="white"/>
<path d="M39.0811 8.1375C40.3512 8.1375 41.5236 8.36765 42.5982 8.82796C43.6729 9.25538 44.601 9.86364 45.3826 10.6527C46.1642 11.4418 46.7667 12.3789 47.19 13.4639C47.646 14.5489 47.8739 15.7325 47.8739 17.0148V31.0705H43.7218L42.7448 28.8511C42.2237 29.3114 41.6538 29.7224 41.0351 30.0841C40.4814 30.4129 39.8138 30.7088 39.0323 30.9718C38.2507 31.202 37.3714 31.317 36.3944 31.317C33.952 31.317 32.0794 30.7252 30.7768 29.5416C29.4742 28.3251 28.8228 26.7798 28.8228 24.9057C28.8228 23.7878 29.0345 22.7686 29.4579 21.848C29.9138 20.8945 30.6628 20.0889 31.7049 19.4314C32.747 18.7409 34.1148 18.2148 35.8082 17.8532C37.5342 17.4586 39.6836 17.2614 42.2563 17.2614C42.2563 16.012 41.9143 15.042 41.2305 14.3516C40.5791 13.6611 39.6999 13.3159 38.5926 13.3159C37.8436 13.3159 37.2411 13.4474 36.7852 13.7105C36.3619 13.9735 36.0199 14.253 35.7594 14.5489C35.4663 14.9105 35.2709 15.3215 35.1732 15.7818H29.5556C29.6858 14.7297 29.9789 13.7433 30.4348 12.8227C30.9233 11.9021 31.5747 11.0966 32.3888 10.4061C33.203 9.71568 34.1637 9.17318 35.2709 8.77864C36.4107 8.35121 37.6808 8.1375 39.0811 8.1375ZM37.3714 26.8784C38.8369 26.8784 40.0092 26.451 40.8885 25.5961C41.8004 24.7084 42.2563 23.5741 42.2563 22.1932V21.2068C40.5954 21.2068 39.2602 21.289 38.2507 21.4534C37.2411 21.5849 36.4433 21.7986 35.8571 22.0945C35.3035 22.3576 34.929 22.6864 34.7336 23.0809C34.5382 23.4755 34.4405 23.9193 34.4405 24.4125C34.4405 25.0372 34.7173 25.6126 35.2709 26.1386C35.8245 26.6318 36.5247 26.8784 37.3714 26.8784Z" fill="white"/>
<path d="M58.6016 31.0705H52.984V0H58.6016V31.0705Z" fill="white"/>
<path d="M72.9929 31.317C71.6577 31.317 70.4365 31.1033 69.3293 30.6759C68.222 30.2156 67.2613 29.5745 66.4472 28.7525C65.6656 27.8977 65.0469 26.8784 64.5909 25.6948C64.1676 24.5111 63.9559 23.1795 63.9559 21.7V8.38409H69.5735V20.9602C69.5735 22.4398 69.9969 23.6398 70.8436 24.5605C71.7229 25.4482 72.8464 25.892 74.2142 25.892C75.5819 25.892 76.6892 25.4482 77.5359 24.5605C78.4152 23.6398 78.8548 22.4398 78.8548 20.9602V8.38409H84.4724V31.0705H80.3203L79.3433 28.8511C78.7897 29.3114 78.1872 29.7224 77.5359 30.0841C76.9823 30.4129 76.3147 30.7088 75.5331 30.9718C74.7515 31.202 73.9048 31.317 72.9929 31.317Z" fill="white"/>
<path d="M109.887 24.1659C109.594 25.0208 109.138 25.8756 108.519 26.7305C107.933 27.5853 107.201 28.358 106.321 29.0484C105.475 29.706 104.498 30.2485 103.39 30.6759C102.316 31.1033 101.143 31.317 99.8732 31.317C98.3426 31.317 96.8934 31.0211 95.5257 30.4293C94.1904 29.8046 93.0018 28.9662 91.9597 27.9141C90.9501 26.862 90.136 25.6455 89.5172 24.2645C88.931 22.8508 88.638 21.3383 88.638 19.7273C88.638 18.1162 88.931 16.6202 89.5172 15.2393C90.136 13.8255 90.9501 12.5926 91.9597 11.5405C93.0018 10.4883 94.1904 9.66636 95.5257 9.07455C96.8934 8.44985 98.3426 8.1375 99.8732 8.1375C101.339 8.1375 102.723 8.41697 104.025 8.97591C105.328 9.53485 106.468 10.3239 107.445 11.3432C108.422 12.3624 109.187 13.5954 109.741 15.042C110.327 16.4558 110.62 18.0176 110.62 19.7273C110.62 19.9903 110.604 20.2533 110.571 20.5164C110.539 20.7465 110.506 20.9767 110.473 21.2068C110.441 21.4699 110.408 21.7164 110.376 21.9466H94.7441C95.0046 23.0645 95.5582 24.0015 96.4049 24.7577C97.2516 25.5139 98.4077 25.892 99.8732 25.892C100.622 25.892 101.241 25.8098 101.729 25.6455C102.251 25.4811 102.69 25.2838 103.048 25.0536C103.439 24.7906 103.765 24.4947 104.025 24.1659H109.887ZM99.8732 13.5625C98.4077 13.5625 97.2028 13.9899 96.2584 14.8448C95.3465 15.6996 94.7603 16.7517 94.4998 18.0011H105.247C104.986 16.7517 104.384 15.6996 103.439 14.8448C102.527 13.9899 101.339 13.5625 99.8732 13.5625Z" fill="white"/>
<path d="M133.568 14.5489C134.479 14.9763 135.294 15.5352 136.01 16.2257C136.629 16.8175 137.182 17.6066 137.671 18.593C138.192 19.5793 138.452 20.7794 138.452 22.1932C138.452 23.3768 138.208 24.5111 137.72 25.5961C137.231 26.6483 136.531 27.5853 135.619 28.4073C134.74 29.1964 133.681 29.8375 132.444 30.3307C131.239 30.8239 129.904 31.0705 128.438 31.0705H115.249V0H127.95C129.285 0 130.523 0.230152 131.662 0.690455C132.802 1.15076 133.779 1.77546 134.593 2.56455C135.44 3.35364 136.091 4.27424 136.547 5.32637C137.003 6.34561 137.231 7.44705 137.231 8.63068C137.231 9.68281 137.036 10.587 136.645 11.3432C136.254 12.0994 135.831 12.7077 135.375 13.168C134.821 13.7269 134.219 14.1872 133.568 14.5489ZM121.111 12.5761H127.461C128.569 12.5761 129.497 12.2145 130.246 11.4911C130.995 10.7349 131.369 9.86364 131.369 8.87727C131.369 7.89091 130.995 7.03606 130.246 6.31273C129.497 5.55652 128.569 5.17841 127.461 5.17841H121.111V12.5761ZM127.95 25.892C129.318 25.892 130.425 25.4646 131.272 24.6098C132.151 23.7549 132.591 22.7028 132.591 21.4534C132.591 20.204 132.151 19.1519 131.272 18.297C130.425 17.4422 129.318 17.0148 127.95 17.0148H121.111V25.892H127.95Z" fill="white"/>
<path d="M187.278 2.95909H192.162V8.38409H197.047V13.5625H192.162V22.933C192.162 23.9193 192.439 24.7084 192.993 25.3002C193.579 25.8592 194.361 26.1386 195.338 26.1386C195.598 26.1386 195.81 26.1386 195.973 26.1386C196.136 26.1058 196.282 26.0729 196.412 26.04C196.543 26.0071 196.673 25.9578 196.803 25.892V30.8239C196.575 30.9225 196.315 31.0047 196.022 31.0705C195.468 31.2349 194.833 31.317 194.116 31.317C193.009 31.317 191.983 31.1362 191.039 30.7745C190.127 30.38 189.329 29.8211 188.645 29.0977C187.994 28.3744 187.473 27.5195 187.082 26.5332C186.724 25.5468 186.545 24.4289 186.545 23.1795V13.5625H183.125V8.87727H184.591C186.382 8.87727 187.278 7.97311 187.278 6.16478V2.95909Z" fill="white"/>
<path fill-rule="evenodd" clip-rule="evenodd" d="M152.63 31H170.773H170.773C176.94 31 181.939 25.953 181.939 19.7273C181.939 13.5015 176.94 8.45455 170.773 8.45455H170.773H152.63H151.932V8.47621C146.09 8.83993 141.464 13.7382 141.464 19.7273C141.464 25.7164 146.09 30.6146 151.932 30.9783V31H152.63ZM154.798 26.7706H168.605C168.667 26.772 168.73 26.7727 168.792 26.7727C172.97 26.7727 176.356 23.6184 176.356 19.7273C176.356 15.9097 173.097 12.8013 169.028 12.6852L169.028 12.6818H168.792H154.611H154.448V12.6834C150.346 12.7641 147.047 15.8869 147.047 19.7273C147.047 23.6184 150.433 26.7727 154.611 26.7727C154.673 26.7727 154.736 26.772 154.798 26.7706Z" fill="#00FFC2"/>
</svg>
