<svg width="205" height="36" viewBox="0 0 205 36" fill="none" xmlns="http://www.w3.org/2000/svg">
<path d="M10.3678 35.0659L0 6H5.75989L13.1326 27.2227L20.5052 6H26.2651L15.8973 35.0659H10.3678Z" fill="white"/>
<path d="M36.3935 13.6125C37.5916 13.6125 38.6975 13.8278 39.7112 14.2584C40.725 14.6583 41.6005 15.2273 42.3377 15.9655C43.075 16.7036 43.6433 17.5802 44.0427 18.5952C44.4727 19.6102 44.6878 20.7175 44.6878 21.917V35.0659H40.771L39.8495 32.9898C39.3579 33.4204 38.8204 33.8049 38.2367 34.1432C37.7145 34.4508 37.0847 34.7276 36.3474 34.9736C35.6102 35.1889 34.7807 35.2966 33.8592 35.2966C31.5552 35.2966 29.7888 34.743 28.5601 33.6357C27.3313 32.4977 26.7169 31.0521 26.7169 29.2989C26.7169 28.2531 26.9166 27.2996 27.3159 26.4384C27.746 25.5464 28.4525 24.7929 29.4356 24.1777C30.4186 23.5318 31.7088 23.0397 33.3062 22.7014C34.9343 22.3323 36.9618 22.1477 39.3887 22.1477C39.3887 20.9789 39.0661 20.0716 38.421 19.4257C37.8066 18.7798 36.9772 18.4568 35.9327 18.4568C35.2262 18.4568 34.6579 18.5799 34.2278 18.8259C33.8284 19.072 33.5059 19.3334 33.2601 19.6102C32.9837 19.9486 32.7993 20.333 32.7072 20.7636H27.4081C27.531 19.7794 27.8074 18.8567 28.2375 17.9955C28.6983 17.1342 29.3127 16.3807 30.0807 15.7348C30.8487 15.0889 31.7549 14.5814 32.7993 14.2123C33.8745 13.8124 35.0726 13.6125 36.3935 13.6125ZM34.7808 31.1443C36.1631 31.1443 37.269 30.7445 38.0984 29.9448C38.9586 29.1143 39.3887 28.0532 39.3887 26.7614V25.8386C37.822 25.8386 36.5625 25.9155 35.6102 26.0693C34.6579 26.1924 33.9052 26.3923 33.3523 26.6691C32.8301 26.9152 32.4768 27.2227 32.2925 27.5918C32.1082 27.9609 32.016 28.3761 32.016 28.8375C32.016 29.4219 32.2771 29.9602 32.7993 30.4523C33.3216 30.9136 33.982 31.1443 34.7808 31.1443Z" fill="white"/>
<path d="M54.8072 35.0659H49.5081V6H54.8072V35.0659Z" fill="white"/>
<path d="M68.3825 35.2966C67.123 35.2966 65.971 35.0967 64.9266 34.6968C63.8821 34.2662 62.9759 33.6664 62.2079 32.8975C61.4706 32.0978 60.887 31.1443 60.4569 30.037C60.0576 28.9298 59.8579 27.6841 59.8579 26.3V13.8432H65.157V25.608C65.157 26.992 65.5563 28.1147 66.355 28.9759C67.1845 29.8064 68.2443 30.2216 69.5345 30.2216C70.8247 30.2216 71.8692 29.8064 72.6679 28.9759C73.4973 28.1147 73.912 26.992 73.912 25.608V13.8432H79.2111V35.0659H75.2944L74.3728 32.9898C73.8506 33.4204 73.2823 33.8049 72.6679 34.1432C72.1456 34.4508 71.5159 34.7276 70.7786 34.9736C70.0414 35.1889 69.2427 35.2966 68.3825 35.2966Z" fill="white"/>
<path d="M103.185 28.6068C102.908 29.4065 102.478 30.2062 101.895 31.0059C101.342 31.8056 100.651 32.5284 99.8211 33.1743C99.0224 33.7895 98.1008 34.297 97.0563 34.6968C96.0426 35.0967 94.9367 35.2966 93.7386 35.2966C92.2948 35.2966 90.9278 35.0198 89.6376 34.4661C88.3781 33.8817 87.2568 33.0974 86.2738 32.1132C85.3215 31.1289 84.5535 29.9909 83.9699 28.6991C83.4169 27.3765 83.1404 25.9617 83.1404 24.4545C83.1404 22.9474 83.4169 21.548 83.9699 20.2561C84.5535 18.9336 85.3215 17.7802 86.2738 16.7959C87.2568 15.8117 88.3781 15.0427 89.6376 14.4891C90.9278 13.9047 92.2948 13.6125 93.7386 13.6125C95.121 13.6125 96.4266 13.8739 97.6554 14.3968C98.8842 14.9197 99.9593 15.6579 100.881 16.6114C101.802 17.5649 102.524 18.7183 103.047 20.0716C103.6 21.3942 103.876 22.8552 103.876 24.4545C103.876 24.7006 103.861 24.9467 103.83 25.1927C103.799 25.408 103.769 25.6233 103.738 25.8386C103.707 26.0847 103.676 26.3154 103.646 26.5307H88.9003C89.1461 27.5764 89.6683 28.453 90.467 29.1605C91.2657 29.8679 92.3563 30.2216 93.7386 30.2216C94.4452 30.2216 95.0289 30.1447 95.4896 29.9909C95.9812 29.8371 96.3959 29.6526 96.7338 29.4373C97.1024 29.1912 97.4096 28.9144 97.6554 28.6068H103.185ZM93.7386 18.6875C92.3563 18.6875 91.2197 19.0874 90.3288 19.887C89.4686 20.6867 88.9157 21.671 88.6699 22.8398H98.8073C98.5616 21.671 97.9933 20.6867 97.1024 19.887C96.2423 19.0874 95.121 18.6875 93.7386 18.6875Z" fill="white"/>
<path d="M125.522 19.6102C126.383 20.0101 127.151 20.533 127.826 21.1789C128.41 21.7325 128.932 22.4707 129.393 23.3934C129.885 24.3161 130.13 25.4388 130.13 26.7614C130.13 27.8686 129.9 28.9298 129.439 29.9448C128.978 30.929 128.318 31.8056 127.458 32.5746C126.628 33.3127 125.63 33.9125 124.463 34.3739C123.326 34.8352 122.067 35.0659 120.684 35.0659H108.243V6H120.223C121.483 6 122.65 6.2153 123.725 6.64591C124.801 7.07652 125.722 7.66091 126.49 8.39909C127.289 9.13727 127.903 9.99849 128.333 10.9827C128.763 11.9362 128.978 12.9666 128.978 14.0739C128.978 15.0581 128.794 15.9039 128.425 16.6114C128.057 17.3188 127.657 17.8878 127.227 18.3184C126.705 18.8413 126.137 19.2719 125.522 19.6102ZM113.772 17.7648H119.763C120.807 17.7648 121.683 17.4264 122.389 16.7498C123.096 16.0424 123.449 15.2273 123.449 14.3045C123.449 13.3818 123.096 12.5821 122.389 11.9055C121.683 11.198 120.807 10.8443 119.763 10.8443H113.772V17.7648ZM120.223 30.2216C121.514 30.2216 122.558 29.8217 123.357 29.022C124.186 28.2223 124.601 27.2381 124.601 26.0693C124.601 24.9005 124.186 23.9163 123.357 23.1166C122.558 22.3169 121.514 21.917 120.223 21.917H113.772V30.2216H120.223Z" fill="white"/>
<path d="M176.187 8.76818H180.795V13.8432H185.403V18.6875H180.795V27.4534C180.795 28.3761 181.056 29.1143 181.578 29.668C182.131 30.1908 182.869 30.4523 183.79 30.4523C184.036 30.4523 184.236 30.4523 184.389 30.4523C184.543 30.4215 184.681 30.3908 184.804 30.36C184.927 30.3292 185.05 30.2831 185.173 30.2216V34.8352C184.958 34.9275 184.712 35.0044 184.435 35.0659C183.913 35.2197 183.314 35.2966 182.638 35.2966C181.594 35.2966 180.626 35.1274 179.735 34.7891C178.875 34.42 178.122 33.8971 177.477 33.2205C176.863 32.5438 176.371 31.7441 176.003 30.8214C175.665 29.8986 175.496 28.8529 175.496 27.6841V18.6875H172.27V14.3045H173.653C175.342 14.3045 176.187 13.4587 176.187 11.767V8.76818Z" fill="white"/>
<path fill-rule="evenodd" clip-rule="evenodd" d="M143.504 35.0001H160.619H160.619C166.436 35.0001 171.151 30.2787 171.151 24.4546C171.151 18.6305 166.436 13.9092 160.619 13.9092H160.619H143.504H142.845V13.9294C137.335 14.2697 132.971 18.8519 132.971 24.4546C132.971 30.0574 137.335 34.6396 142.845 34.9798V35.0001H143.504ZM145.549 31.0436H158.573C158.632 31.0449 158.691 31.0455 158.75 31.0455C162.69 31.0455 165.885 28.0947 165.885 24.4546C165.885 20.8834 162.81 17.9755 158.972 17.8669L158.973 17.8637H158.75H145.372H145.219V17.8652C141.349 17.9407 138.237 20.862 138.237 24.4546C138.237 28.0947 141.432 31.0455 145.372 31.0455C145.431 31.0455 145.49 31.0449 145.549 31.0436Z" fill="#00FFC2"/>
<path d="M195.495 18.575C200.17 18.575 202.895 15.25 202.895 11.175C202.895 7.1 200.17 3.775 195.495 3.775C190.82 3.775 188.095 7.1 188.095 11.175C188.095 15.25 190.82 18.575 195.495 18.575ZM195.495 16.575C192.02 16.575 190.095 14.075 190.095 11.175C190.095 8.275 192.02 5.775 195.495 5.775C198.97 5.775 200.895 8.275 200.895 11.175C200.895 14.075 198.97 16.575 195.495 16.575ZM192.27 14.625H194.17V12.675H197.07V14.625H198.97V12.425C198.97 12.025 198.745 11.8 198.345 11.8H196.845V11.3C197.895 11.2 198.97 10.95 198.97 9.65C198.97 7.925 196.795 7.6 195.37 7.6H192.27V14.625ZM194.17 10.775V9.5H195.37C196.42 9.5 197.07 9.5 197.07 10.125C197.07 10.775 196.42 10.775 195.37 10.775H194.17Z" fill="#00FFC2"/>
</svg>
