<svg width="126" height="126" viewBox="0 0 126 126" fill="none" xmlns="http://www.w3.org/2000/svg">
    <path d="M63.0005 108.75C37.7335 108.75 17.2505 88.267 17.2505 63C17.2505 37.733 37.7335 17.25 63.0005 17.25C88.2675 17.25 108.75 37.733 108.75 63C108.75 88.267 88.2675 108.75 63.0005 108.75Z" stroke="#219653" stroke-width="0.5"/>
    <path d="M63.0005 125.75C28.3446 125.75 0.250492 97.6559 0.250493 63C0.250495 28.3441 28.3446 0.249996 63.0005 0.249997C97.6564 0.249999 125.75 28.3441 125.75 63C125.75 97.6559 97.6564 125.75 63.0005 125.75Z" stroke="#219653" stroke-width="0.5"/>
    <circle cx="63.0005" cy="63" r="25" transform="rotate(90 63.0005 63)" fill="#219653"/>
    <path d="M76.0005 62.5L57.2505 73.3253L57.2505 51.6747L76.0005 62.5Z" fill="#FEFEFE"/>
</svg>