<svg class="sprite-icons" xmlns="http://www.w3.org/2000/svg">

    <symbol id="icon-location" viewBox="0 0 14 20">
        <title>Location</title>
        <!-- width="14" height="20" -->
        <path d="M7 0C3.13 0 0 3.128 0 6.99553C0 12.2422 7 19.9872 7 19.9872C7 19.9872 14 12.2422 14 6.99553C14 3.128 10.87 0 7 0Z" fill="#219653"/>
        <path d="M7 9.49388C5.62 9.49388 4.5 8.3746 4.5 6.99548C4.5 5.61636 5.62 4.49707 7 4.49707C8.38 4.49707 9.5 5.61636 9.5 6.99548C9.5 8.3746 8.38 9.49388 7 9.49388Z" fill="#FEFEFE"/>
    </symbol>

    <symbol id="icon-burger" viewBox="0 0 17 15">
        <title>Burger</title>
        <!-- width="17" height="15" -->
        <rect x="0.8" y="0.8" width="15.3999" height="1.55908" rx="0.779542" fill="#222222" stroke="#222222" stroke-width="0.4"/>
        <rect x="0.8" y="6.72041" width="15.3999" height="1.55908" rx="0.779542" fill="#222222" stroke="#222222" stroke-width="0.4"/>
        <rect x="0.8" y="12.6408" width="15.3999" height="1.55908" rx="0.779542" fill="#222222" stroke="#222222" stroke-width="0.4"/>
    </symbol>

    <symbol id="icon-close" viewBox="0 0 28 28">
        <title>Burger</title>
        <!-- width="28" height="28" -->
        <rect x="3.27405" y="0.717157" width="34.5104" height="3.03581" rx="1.2" transform="rotate(45 3.27405 0.717157)" fill="#219653" stroke="#219653" stroke-width="0.4"/>
        <path d="M1.56569 24.2711C1.09706 24.7397 1.09706 25.4995 1.56568 25.9682L2.01527 26.4177C2.4839 26.8864 3.2437 26.8864 3.71233 26.4177L26.4178 3.71229C26.8864 3.24366 26.8864 2.48387 26.4178 2.01524L25.9682 1.56565C25.4996 1.09702 24.7398 1.09702 24.2711 1.56565L1.56569 24.2711Z" fill="#219653" stroke="#219653" stroke-width="0.4"/>
    </symbol>

    <symbol id="icon-arrow-link" viewBox="0 0 43 15">
        <title>Arrow Link</title>
        <!-- width="43" height="15" -->
        <path d="M0.525 14.725V11.1L8.775 7.85V7.8L0.525 4.525V0.9L13.125 6.475V9.15L0.525 14.725ZM15.0152 14.725V11.1L23.2652 7.85V7.8L15.0152 4.525V0.9L27.6152 6.475V9.15L15.0152 14.725ZM29.5055 14.725V11.1L37.7555 7.85V7.8L29.5055 4.525V0.9L42.1055 6.475V9.15L29.5055 14.725Z"/>
    </symbol>

    <symbol id="icon-star" viewBox="0 0 16 15">
        <title>Star</title>
        <path d="M15.4829 5.27849L10.6864 4.59458L8.54222 0.329912C8.48365 0.213148 8.38731 0.118624 8.26829 0.061169C7.96981 -0.0833961 7.6071 0.0370749 7.45786 0.329912L5.3137 4.59458L0.517213 5.27849C0.384974 5.29702 0.26407 5.35818 0.171503 5.45085C0.0595945 5.5637 -0.0020722 5.71552 5.31712e-05 5.87295C0.00217854 6.03038 0.0679221 6.18055 0.182838 6.29044L3.65316 9.60988L2.83328 14.2971C2.81405 14.4062 2.82635 14.5183 2.86878 14.6208C2.91121 14.7234 2.98207 14.8122 3.07333 14.8772C3.16459 14.9422 3.27259 14.9809 3.38509 14.9887C3.4976 14.9966 3.6101 14.9734 3.70983 14.9217L8.00004 12.7088L12.2902 14.9217C12.4074 14.9829 12.5434 15.0033 12.6737 14.981C13.0024 14.9254 13.2235 14.6196 13.1668 14.2971L12.3469 9.60988L15.8172 6.29044C15.9117 6.19963 15.974 6.08101 15.9929 5.95127C16.0439 5.62693 15.8135 5.32668 15.4829 5.27849Z"/>
    </symbol>

    <symbol id="icon-arrow-up" viewBox="0 0 11 13">
        <title>Arrow</title>
        <!-- width="11" height="13" -->
        <path d="M6.55 3.99V12.04H4.45V3.99L3.47 4.97H0.53L5.5 -8.34465e-07L10.47 4.97H7.53L6.55 3.99Z"/>
    </symbol>

    <symbol id="icon-arrow-small" viewBox="0 0 10 12">
        <title>Arrow</title>
        <!-- width="10" height="12" -->
        <path d="M5 11.69L0.66 7.35H2.62L4.3 9.03V0.35H5.7V9.03L7.38 7.35H9.34L5 11.69Z"/>
    </symbol>

    <symbol id="icon-message-count" viewBox="0 0 35 31">
        <title>Message</title>
        <!-- width="35" height="31" -->
        <path d="M3.06942 0C1.5377 0 0.2637 1.40273 0.2637 3.09697L0.25 31L5.86144 24.8H31.9897C33.5231 24.8 34.7955 23.3942 34.7955 21.7V3.1C34.7955 1.40575 33.5231 0 31.9897 0H3.06942ZM3.06942 3.1H31.9897V21.7H4.6997L3.0612 23.5104L3.06942 3.1Z"/>
    </symbol>

    <symbol id="icon-search" viewBox="0 0 21 21">
        <title>Search</title>
        <!-- width="21" height="21" -->
        <path d="M8.74472 0C3.9255 0 0 3.9255 0 8.74472C0 13.5639 3.9255 17.4894 8.74472 17.4894C10.8404 17.4894 12.765 16.7453 14.2734 15.5099L19.4946 20.7311C19.5752 20.8151 19.6717 20.8821 19.7785 20.9282C19.8853 20.9744 20.0002 20.9988 20.1165 21C20.2329 21.0011 20.3483 20.9791 20.456 20.9351C20.5637 20.8911 20.6616 20.8261 20.7438 20.7438C20.8261 20.6616 20.8911 20.5637 20.9351 20.456C20.9791 20.3483 21.0011 20.2329 21 20.1165C20.9988 20.0002 20.9744 19.8853 20.9282 19.7785C20.8821 19.6717 20.8151 19.5752 20.7311 19.4946L15.5099 14.2734C16.7453 12.765 17.4894 10.8404 17.4894 8.74472C17.4894 3.9255 13.5639 0 8.74472 0ZM8.74472 1.74894C12.6187 1.74894 15.7405 4.8707 15.7405 8.74472C15.7405 12.6187 12.6187 15.7405 8.74472 15.7405C4.8707 15.7405 1.74894 12.6187 1.74894 8.74472C1.74894 4.8707 4.8707 1.74894 8.74472 1.74894Z"/>
    </symbol>

<!--    <symbol id="icon-search" viewBox="0 0 21 22">-->
<!--        <title>Search</title>-->
<!--        &lt;!&ndash; width="21" height="22" &ndash;&gt;-->
<!--        <path d="M8.74472 0.5C3.9255 0.5 0 4.4255 0 9.24472C0 14.0639 3.9255 17.9894 8.74472 17.9894C10.8404 17.9894 12.765 17.2453 14.2734 16.0099L19.4946 21.2311C19.5752 21.3151 19.6717 21.3821 19.7785 21.4282C19.8853 21.4744 20.0002 21.4988 20.1165 21.5C20.2329 21.5011 20.3483 21.4791 20.456 21.4351C20.5637 21.3911 20.6616 21.3261 20.7438 21.2438C20.8261 21.1616 20.8911 21.0637 20.9351 20.956C20.9791 20.8483 21.0011 20.7329 21 20.6165C20.9988 20.5002 20.9744 20.3853 20.9282 20.2785C20.8821 20.1717 20.8151 20.0752 20.7311 19.9946L15.5099 14.7734C16.7453 13.265 17.4894 11.3404 17.4894 9.24472C17.4894 4.4255 13.5639 0.5 8.74472 0.5ZM8.74472 2.24894C12.6187 2.24894 15.7405 5.3707 15.7405 9.24472C15.7405 13.1187 12.6187 16.2405 8.74472 16.2405C4.8707 16.2405 1.74894 13.1187 1.74894 9.24472C1.74894 5.3707 4.8707 2.24894 8.74472 2.24894Z"/>-->
<!--    </symbol>-->

    <symbol id="icon-message" viewBox="0 0 28 24">
        <title>Message</title>
        <!-- width="28" height="24" -->
        <path d="M2.45252 0C1.22876 0 0.210897 1.08598 0.210897 2.39766L0.199951 24L4.6832 19.2H25.5583C26.7834 19.2 27.7999 18.1117 27.7999 16.8V2.4C27.7999 1.08832 26.7834 0 25.5583 0H2.45252ZM2.45252 2.4H25.5583V16.8H3.75503L2.44595 18.2016L2.45252 2.4Z" fill="white" fill-opacity="0.5"/>
        <path d="M6 7H22.2353" stroke="white" stroke-opacity="0.5" stroke-width="2.5"/>
        <path d="M5.88232 12.2414H22.1176" stroke="white" stroke-opacity="0.5" stroke-width="2.5"/>
    </symbol>

</svg>