<svg width="14" height="11" viewBox="0 0 14 11" fill="none" xmlns="http://www.w3.org/2000/svg">
<path d="M14 3.97266C14 3.66982 13.9489 3.31652 13.9489 2.91273C13.8978 2.50895 13.8467 2.10516 13.7956 1.75185C13.6934 1.34807 13.5401 1.04523 13.2336 0.792869C12.9781 0.540504 12.6204 0.389081 12.2628 0.338608C11.0876 0.187189 9.35037 0.136719 7.00001 0.136719C4.64964 0.136719 2.86131 0.187189 1.73722 0.338608C1.37956 0.389081 1.0219 0.540504 0.766424 0.792869C0.510949 1.04523 0.306566 1.34807 0.204376 1.75185C0.102187 2.10516 0.051098 2.45848 0.051098 2.91273C3.11782e-06 3.31652 0 3.66982 0 3.97266C0 4.2755 0 4.62881 0 5.13354C0 5.63827 0 6.04206 0 6.29442C0 6.59726 0.051098 6.95057 0.051098 7.35436C0.102193 7.75814 0.153282 8.16192 0.204376 8.51523C0.306566 8.91901 0.459854 9.22186 0.766424 9.47422C1.0219 9.72659 1.37956 9.878 1.73722 9.92848C2.91241 10.0799 4.64964 10.1304 7.00001 10.1304C9.35037 10.1304 11.1387 10.0799 12.2628 9.92848C12.6204 9.878 12.9781 9.72659 13.2336 9.47422C13.4891 9.22186 13.6934 8.91901 13.7956 8.51523C13.8978 8.16192 13.9489 7.80861 13.9489 7.35436C14 6.95057 14 6.59726 14 6.29442C14 5.99158 14 5.63827 14 5.13354C14 4.62881 14 4.22503 14 3.97266ZM9.70803 5.53733L5.67154 8.0105C5.62044 8.06097 5.51825 8.11145 5.41606 8.11145C5.31387 8.11145 5.26278 8.11145 5.16059 8.06098C5.0073 7.96003 4.90511 7.80861 4.90511 7.60672V2.60989C4.90511 2.408 5.0073 2.25658 5.16059 2.15564C5.31387 2.05469 5.51825 2.05469 5.67154 2.15564L9.70803 4.62881C9.86132 4.72976 9.96351 4.88118 9.96351 5.0326C9.96351 5.18402 9.86132 5.43638 9.70803 5.53733Z" fill="#343A40"/>
</svg>
