<svg width="14" height="14" viewBox="0 0 14 14" fill="none" xmlns="http://www.w3.org/2000/svg">
<path d="M12.0077 0.137207H1.99231C0.861537 0.137207 0 0.936697 0 1.98603V11.2801C0 12.3294 0.861537 13.1289 1.99231 13.1289H12.0077C13.1385 13.1289 14 12.3294 14 11.2801V1.98603C14 0.936697 13.1385 0.137207 12.0077 0.137207ZM7 10.5306C9.31538 10.5306 11.2 8.83165 11.2 6.78296C11.2 6.43318 11.1462 6.03344 11.0385 5.73363H12.2231V11.0302C12.2231 11.2801 12.0077 11.5299 11.6846 11.5299H2.31539C2.04616 11.5299 1.77692 11.3301 1.77692 11.0302V5.68366H3.01539C2.9077 6.03344 2.85385 6.38322 2.85385 6.73299C2.8 8.83165 4.68462 10.5306 7 10.5306ZM7 9.03152C5.49231 9.03152 4.30769 7.93223 4.30769 6.58309C4.30769 5.23395 5.49231 4.13465 7 4.13465C8.50769 4.13465 9.69231 5.23395 9.69231 6.58309C9.69231 7.9822 8.50769 9.03152 7 9.03152ZM12.1692 3.68494C12.1692 3.98475 11.9 4.23459 11.5769 4.23459H10.0692C9.74615 4.23459 9.47693 3.98475 9.47693 3.68494V2.3358C9.47693 2.03599 9.74615 1.78615 10.0692 1.78615H11.5769C11.9 1.78615 12.1692 2.03599 12.1692 2.3358V3.68494Z" fill="#343A40"/>
</svg>
