<svg width="16" height="11" viewBox="0 0 16 11" fill="none" xmlns="http://www.w3.org/2000/svg">
<path d="M15.8514 9.10363C15.8514 9.03518 15.7877 9.03518 15.7877 8.96673C15.5331 8.41913 14.9601 7.73464 14.1962 6.98169C13.8143 6.63944 13.6233 6.36564 13.4959 6.22874C13.305 5.95494 13.305 5.7496 13.3686 5.4758C13.4323 5.27045 13.6869 4.92819 14.1326 4.31215C14.3872 3.9699 14.5145 3.76455 14.7055 3.5592C15.6604 2.19021 16.106 1.30036 15.9787 0.889659L15.915 0.821216C15.8514 0.752766 15.7877 0.684319 15.6604 0.684319C15.5331 0.615869 15.3421 0.615869 15.1511 0.684319H12.732C12.6684 0.684319 12.6684 0.684319 12.541 0.684319C12.4774 0.684319 12.4137 0.684319 12.4137 0.684319H12.3501H12.2864L12.2227 0.752762C12.1591 0.821212 12.1591 0.82121 12.1591 0.889659C11.9044 1.64261 11.5861 2.25865 11.2678 2.94315C11.0769 3.2854 10.8859 3.62765 10.6949 3.90145C10.5039 4.17525 10.3766 4.3806 10.2493 4.5175C10.122 4.6544 9.99464 4.72285 9.93098 4.85975C9.86732 4.92819 9.74 4.99665 9.74 4.9282C9.67634 4.9282 9.61268 4.92819 9.61268 4.85975C9.54902 4.7913 9.48536 4.72284 9.4217 4.65439C9.35804 4.58594 9.35804 4.44904 9.29438 4.31215C9.29438 4.17525 9.29438 4.03835 9.29438 3.9699C9.29438 3.90145 9.29438 3.6961 9.29438 3.5592C9.29438 3.35386 9.29438 3.21695 9.29438 3.1485C9.29438 2.94315 9.29438 2.66936 9.29438 2.39556C9.29438 2.12176 9.29438 1.91641 9.29438 1.77951C9.29438 1.64261 9.29438 1.43726 9.29438 1.30036C9.29438 1.09501 9.29438 0.958109 9.29438 0.889659C9.29438 0.82121 9.23073 0.684314 9.23073 0.615865C9.16707 0.547415 9.1034 0.478963 9.03974 0.410513C8.97608 0.342064 8.84876 0.342066 8.7851 0.273616C8.4668 0.205166 8.08485 0.136719 7.63923 0.136719C6.62067 0.136719 5.9204 0.205171 5.66576 0.34207C5.53844 0.41052 5.41112 0.478965 5.34746 0.615865C5.22014 0.752764 5.22013 0.821216 5.28379 0.821216C5.6021 0.889666 5.85674 1.02656 5.98406 1.23191L6.04772 1.36882C6.11138 1.43727 6.11137 1.57416 6.17503 1.77951C6.23869 1.98486 6.2387 2.19021 6.2387 2.464C6.2387 2.8747 6.2387 3.28541 6.2387 3.5592C6.2387 3.90145 6.17503 4.1068 6.17503 4.31215C6.17503 4.51749 6.11138 4.6544 6.04772 4.72285C5.98406 4.85975 5.98406 4.9282 5.9204 4.9282C5.9204 4.9282 5.92039 4.99664 5.85673 4.99664C5.79307 4.99664 5.72942 5.0651 5.6021 5.0651C5.53843 5.0651 5.41112 4.99665 5.34746 4.9282C5.22014 4.85975 5.09282 4.72285 5.02916 4.58595C4.90184 4.44905 4.77451 4.2437 4.64719 3.9699C4.51987 3.6961 4.32888 3.4223 4.20156 3.0116L4.07426 2.73781C4.0106 2.60091 3.88328 2.32711 3.75595 1.98486C3.62863 1.64261 3.50131 1.36882 3.37399 1.02657C3.31033 0.889668 3.24668 0.821212 3.18302 0.752762H3.11935C3.11935 0.752762 3.05569 0.684319 2.99203 0.684319C2.92836 0.684319 2.86471 0.615865 2.80105 0.615865H0.509283C0.254643 0.615865 0.127324 0.684312 0.063664 0.752762L0 0.821216C0 0.821216 0 0.889664 0 0.958113C0 1.02656 3.88456e-06 1.09501 0.063664 1.23191C0.381965 2.0533 0.763924 2.87471 1.14588 3.6961C1.52785 4.44905 1.90981 5.13355 2.16445 5.6127C2.48275 6.09184 2.73739 6.57099 3.05569 6.98169C3.37399 7.39239 3.56497 7.66619 3.62863 7.80308C3.75595 7.93998 3.8196 8.00843 3.88326 8.07688L4.07426 8.28223C4.20158 8.41913 4.39255 8.62448 4.64719 8.82983C4.90183 9.03518 5.22013 9.24053 5.53843 9.44587C5.85673 9.65122 6.2387 9.78813 6.62066 9.92503C7.06628 10.0619 7.44824 10.1304 7.8302 10.0619H8.7851C8.97608 10.0619 9.10341 9.99348 9.23073 9.85658L9.29438 9.78812C9.29438 9.71967 9.35804 9.71968 9.35804 9.65123C9.35804 9.58278 9.35804 9.51433 9.35804 9.37743C9.35804 9.10363 9.35804 8.89828 9.4217 8.69293C9.48536 8.48758 9.48537 8.35069 9.54903 8.21379C9.61269 8.07689 9.67634 8.00843 9.74 7.93998C9.80367 7.87153 9.86733 7.80308 9.86733 7.80308H9.93098C10.0583 7.73464 10.2493 7.80308 10.3766 7.93998C10.5676 8.07688 10.7586 8.28223 10.8859 8.48758C11.0132 8.69293 11.2042 8.89828 11.4588 9.17208C11.7135 9.44588 11.9045 9.65123 12.0318 9.71968L12.2227 9.85658C12.3501 9.92503 12.4774 9.99348 12.6684 10.0619C12.8594 10.1304 12.9867 10.1304 13.114 10.1304L15.2784 10.0619C15.4694 10.0619 15.6604 9.99348 15.7877 9.92503C15.915 9.85658 15.9787 9.78813 15.9787 9.65123C15.9787 9.58278 15.9787 9.44588 15.9787 9.37743C15.8514 9.24053 15.8514 9.17208 15.8514 9.10363Z" fill="#343A40"/>
</svg>
