<svg width="188" height="56" viewBox="0 0 188 56" fill="none" xmlns="http://www.w3.org/2000/svg">
<path d="M27.0644 55C25.1196 55 23.3814 54.5414 21.8499 53.6242C20.3427 52.6815 19.1515 51.4204 18.2763 49.8408C17.4254 48.2357 17 46.4268 17 44.414C17 42.3503 17.4254 40.5159 18.2763 38.9108C19.1271 37.3057 20.294 36.0573 21.777 35.1656C23.2599 34.2484 24.9616 33.7898 26.8821 33.7898C28.3164 33.7898 29.6292 34.0828 30.8204 34.6688C32.0116 35.2293 33.0812 36.0828 34.0293 37.2293C34.3697 37.6369 34.4912 38.0573 34.394 38.4904C34.2967 38.9236 34.0293 39.3057 33.5917 39.6369C33.2514 39.8917 32.8746 39.9809 32.4613 39.9045C32.048 39.8025 31.6712 39.5732 31.3309 39.2166C30.1397 37.8917 28.6568 37.2293 26.8821 37.2293C25.6423 37.2293 24.5483 37.535 23.6002 38.1465C22.6521 38.7325 21.9107 39.5605 21.3758 40.6306C20.841 41.7006 20.5736 42.9618 20.5736 44.414C20.5736 45.7898 20.841 47.0127 21.3758 48.0828C21.935 49.1529 22.7007 50.0064 23.6732 50.6433C24.6456 51.2548 25.776 51.5605 27.0644 51.5605C27.9153 51.5605 28.6568 51.4586 29.2888 51.2548C29.9452 51.0255 30.5408 50.6815 31.0756 50.2229C31.4646 49.8917 31.8657 49.7134 32.279 49.6879C32.6922 49.6369 33.0569 49.7516 33.3729 50.0318C33.7862 50.3885 34.0172 50.7962 34.0658 51.2548C34.1144 51.6879 33.9685 52.0828 33.6282 52.4395C31.8779 54.1465 29.6899 55 27.0644 55Z" fill="#F4F4F4"/>
<path d="M44.6621 54.8471C43.5924 54.8471 42.6443 54.5414 41.8178 53.9299C40.9912 53.3185 40.347 52.4904 39.8851 51.4459C39.4232 50.3758 39.1923 49.1529 39.1923 47.7771L39.1923 26.9108C39.1923 26.3503 39.3625 25.8917 39.7028 25.535C40.0431 25.1783 40.4807 25 41.0156 25C41.5504 25 41.988 25.1783 42.3283 25.535C42.6686 25.8917 42.8388 26.3503 42.8388 26.9108L42.8388 47.7771C42.8388 48.7197 43.009 49.4968 43.3493 50.1083C43.6897 50.7197 44.1273 51.0255 44.6621 51.0255L45.5737 51.0255C46.0599 51.0255 46.4489 51.2038 46.7406 51.5605C47.0566 51.9172 47.2147 52.3758 47.2147 52.9363C47.2147 53.4968 46.9837 53.9554 46.5218 54.3121C46.0599 54.6688 45.4643 54.8471 44.735 54.8471L44.6621 54.8471Z" fill="#F4F4F4"/>
<path d="M59.1217 55C57.104 55 55.305 54.5541 53.7249 53.6624C52.169 52.7452 50.9413 51.4968 50.0419 49.9172C49.1667 48.3121 48.7291 46.4777 48.7291 44.414C48.7291 42.3248 49.1424 40.4904 49.9689 38.9108C50.8198 37.3057 51.9867 36.0573 53.4696 35.1656C54.9525 34.2484 56.6542 33.7898 58.5748 33.7898C60.4709 33.7898 62.0997 34.2357 63.4611 35.1274C64.8225 35.9936 65.8557 37.2038 66.5607 38.758C67.29 40.2866 67.6546 42.0573 67.6546 44.0701C67.6546 44.5541 67.4966 44.9618 67.1806 45.293C66.8645 45.5987 66.4634 45.7516 65.9772 45.7516L51.2817 45.7516L51.2817 42.6943L65.8678 42.6943L64.3727 43.7643C64.3484 42.4904 64.1053 41.3567 63.6434 40.3631C63.1815 39.344 62.5252 38.5414 61.6743 37.9554C60.8234 37.3694 59.7903 37.0764 58.5748 37.0764C57.1891 37.0764 55.9979 37.3949 55.0011 38.0318C54.0287 38.6688 53.2873 39.5478 52.7768 40.6688C52.2662 41.7643 52.011 43.0127 52.011 44.414C52.011 45.8153 52.3149 47.0637 52.9226 48.1592C53.5304 49.2548 54.3691 50.121 55.4387 50.758C56.5084 51.3949 57.736 51.7134 59.1217 51.7134C59.8753 51.7134 60.6411 51.5732 61.419 51.293C62.2213 50.9873 62.8655 50.6433 63.3517 50.2611C63.7164 49.9809 64.1053 49.8408 64.5186 49.8408C64.9562 49.8153 65.333 49.9427 65.649 50.2229C66.0623 50.6051 66.2811 51.0255 66.3054 51.4841C66.3297 51.9427 66.1352 52.3376 65.722 52.6688C64.8954 53.3567 63.8622 53.9172 62.6224 54.3503C61.4069 54.7834 60.24 55 59.1217 55Z" fill="#F4F4F4"/>
<path d="M80.0004 55C78.2258 55 76.6334 54.5414 75.2234 53.6242C73.8135 52.6815 72.6952 51.4204 71.8686 49.8408C71.0664 48.2357 70.6653 46.4268 70.6653 44.414C70.6653 42.4013 71.1029 40.5924 71.978 38.9873C72.8775 37.3822 74.0809 36.121 75.5881 35.2038C77.1196 34.2611 78.8335 33.7898 80.7297 33.7898C82.6259 33.7898 84.3276 34.2611 85.8349 35.2038C87.3421 36.121 88.5333 37.3822 89.4085 38.9873C90.3079 40.5924 90.7577 42.4013 90.7577 44.414L89.3355 44.414C89.3355 46.4268 88.9223 48.2357 88.0957 49.8408C87.2935 51.4204 86.1874 52.6815 84.7774 53.6242C83.3674 54.5414 81.7751 55 80.0004 55ZM80.7297 51.5605C81.9695 51.5605 83.0757 51.2548 84.0481 50.6433C85.0205 50.0064 85.7862 49.1529 86.3454 48.0828C86.9045 46.9873 87.1841 45.7643 87.1841 44.414C87.1841 43.0382 86.9045 41.8153 86.3454 40.7452C85.7862 39.6497 85.0205 38.7962 84.0481 38.1847C83.0757 37.5478 81.9695 37.2293 80.7297 37.2293C79.5142 37.2293 78.4081 37.5478 77.4114 38.1847C76.439 38.7962 75.661 39.6497 75.0776 40.7452C74.5185 41.8153 74.2389 43.0382 74.2389 44.414C74.2389 45.7643 74.5185 46.9873 75.0776 48.0828C75.661 49.1529 76.439 50.0064 77.4114 50.6433C78.4081 51.2548 79.5142 51.5605 80.7297 51.5605ZM88.8979 54.8854C88.3631 54.8854 87.9134 54.707 87.5487 54.3503C87.2084 53.9682 87.0382 53.4968 87.0382 52.9363L87.0382 47.0892L87.7311 43.0382L90.7577 44.414L90.7577 52.9363C90.7577 53.4968 90.5754 53.9682 90.2107 54.3503C89.8704 54.707 89.4328 54.8854 88.8979 54.8854Z" fill="#F4F4F4"/>
<path d="M113.14 54.8854C112.605 54.8854 112.156 54.707 111.791 54.3503C111.451 53.9682 111.281 53.4968 111.281 52.9363L111.281 43.535C111.281 42.0828 111.025 40.8981 110.515 39.9809C110.004 39.0637 109.311 38.3885 108.436 37.9554C107.585 37.4968 106.601 37.2675 105.483 37.2675C104.462 37.2675 103.538 37.4841 102.711 37.9172C101.885 38.3503 101.228 38.9363 100.742 39.6752C100.256 40.3885 100.013 41.2166 100.013 42.1592L97.7154 42.1592C97.7154 40.5541 98.0801 39.1274 98.8094 37.879C99.563 36.6051 100.584 35.5987 101.872 34.8599C103.161 34.121 104.607 33.7516 106.212 33.7516C107.889 33.7516 109.384 34.1338 110.697 34.8981C112.034 35.6369 113.079 36.7325 113.833 38.1847C114.611 39.6369 115 41.4204 115 43.535L115 52.9363C115 53.4968 114.818 53.9682 114.453 54.3503C114.113 54.707 113.675 54.8854 113.14 54.8854ZM98.153 54.8854C97.6182 54.8854 97.1685 54.707 96.8038 54.3503C96.4635 53.9682 96.2933 53.4968 96.2933 52.9363L96.2933 35.8917C96.2933 35.3057 96.4635 34.8344 96.8038 34.4777C97.1685 34.121 97.6182 33.9427 98.153 33.9427C98.7122 33.9427 99.1619 34.121 99.5022 34.4777C99.8426 34.8344 100.013 35.3057 100.013 35.8917L100.013 52.9363C100.013 53.4968 99.8426 53.9682 99.5022 54.3503C99.1619 54.707 98.7122 54.8854 98.153 54.8854Z" fill="#F4F4F4"/>
<mask id="path-2-outside-1" maskUnits="userSpaceOnUse" x="0" y="0" width="131" height="29" fill="black">
<rect fill="white" width="131" height="29"/>
<path d="M27.0172 27.8882C26.4857 27.8882 26.0388 27.7144 25.6764 27.3668C25.3382 26.9944 25.1691 26.5351 25.1691 25.9889V15.3379C25.1691 13.7738 24.7947 12.6193 24.0458 11.8744C23.297 11.1048 22.3186 10.72 21.1108 10.72C19.8546 10.72 18.8158 11.1669 17.9945 12.0607C17.1973 12.9544 16.7987 14.0965 16.7987 15.4869H13.7912C13.7912 13.8731 14.1294 12.4579 14.8058 11.2413C15.4822 9.99997 16.4243 9.0317 17.6321 8.33653C18.8642 7.64136 20.2653 7.29377 21.8355 7.29377C23.2124 7.29377 24.4324 7.60412 25.4953 8.2248C26.5582 8.84549 27.3795 9.76411 27.9593 10.9807C28.5632 12.1724 28.8652 13.6248 28.8652 15.3379V25.9889C28.8652 26.5351 28.6961 26.9944 28.3579 27.3668C28.0197 27.7144 27.5728 27.8882 27.0172 27.8882ZM2.84802 27.8882C2.31656 27.8882 1.86965 27.7144 1.5073 27.3668C1.1691 26.9944 1 26.5351 1 25.9889V9.41652C1 8.84549 1.1691 8.38618 1.5073 8.0386C1.86965 7.69101 2.31656 7.51722 2.84802 7.51722C3.40363 7.51722 3.85053 7.69101 4.18873 8.0386C4.52693 8.38618 4.69603 8.84549 4.69603 9.41652V25.9889C4.69603 26.5351 4.52693 26.9944 4.18873 27.3668C3.85053 27.7144 3.40363 27.8882 2.84802 27.8882ZM14.9507 27.8882C14.4192 27.8882 13.9723 27.7144 13.61 27.3668C13.2718 26.9944 13.1027 26.5351 13.1027 25.9889V15.3379C13.1027 13.7738 12.7283 12.6193 11.9794 11.8744C11.2305 11.1048 10.2522 10.72 9.0443 10.72C7.78814 10.72 6.74938 11.1669 5.92804 12.0607C5.1067 12.9544 4.69603 14.0965 4.69603 15.4869H2.41319C2.41319 13.8731 2.72723 12.4579 3.35531 11.2413C3.9834 9.99997 4.85305 9.0317 5.96428 8.33653C7.0755 7.64136 8.34375 7.29377 9.76901 7.29377C11.146 7.29377 12.3659 7.60412 13.4288 8.2248C14.4917 8.84549 15.3131 9.76411 15.8928 10.9807C16.4968 12.1724 16.7987 13.6248 16.7987 15.3379V25.9889C16.7987 26.5351 16.6296 26.9944 16.2914 27.3668C15.9532 27.7144 15.5063 27.8882 14.9507 27.8882Z"/>
<path d="M43.268 27.9999C41.5045 27.9999 39.9222 27.553 38.5211 26.6592C37.12 25.7406 36.0088 24.5116 35.1874 22.9723C34.3903 21.4082 33.9917 19.6455 33.9917 17.6841C33.9917 15.7227 34.4265 13.96 35.2961 12.3958C36.19 10.8317 37.3857 9.60273 38.8835 8.70894C40.4054 7.79032 42.1084 7.33102 43.9927 7.33102C45.8769 7.33102 47.5679 7.79032 49.0657 8.70894C50.5634 9.60273 51.7471 10.8317 52.6168 12.3958C53.5106 13.96 53.9575 15.7227 53.9575 17.6841H52.5443C52.5443 19.6455 52.1336 21.4082 51.3123 22.9723C50.5151 24.5116 49.4159 25.7406 48.0148 26.6592C46.6137 27.553 45.0314 27.9999 43.268 27.9999ZM43.9927 24.6482C45.2247 24.6482 46.3238 24.3503 47.2901 23.7544C48.2564 23.1337 49.0174 22.302 49.573 21.2592C50.1286 20.1917 50.4064 18.9999 50.4064 17.6841C50.4064 16.3434 50.1286 15.1517 49.573 14.1089C49.0174 13.0413 48.2564 12.2096 47.2901 11.6138C46.3238 10.9931 45.2247 10.6827 43.9927 10.6827C42.7848 10.6827 41.6857 10.9931 40.6952 11.6138C39.729 12.2096 38.9559 13.0413 38.3762 14.1089C37.8206 15.1517 37.5427 16.3434 37.5427 17.6841C37.5427 18.9999 37.8206 20.1917 38.3762 21.2592C38.9559 22.302 39.729 23.1337 40.6952 23.7544C41.6857 24.3503 42.7848 24.6482 43.9927 24.6482ZM52.1095 27.8882C51.578 27.8882 51.1311 27.7144 50.7687 27.3668C50.4305 26.9944 50.2614 26.5351 50.2614 25.9889V20.291L50.9499 16.3434L53.9575 17.6841V25.9889C53.9575 26.5351 53.7763 26.9944 53.4139 27.3668C53.0757 27.7144 52.6409 27.8882 52.1095 27.8882Z"/>
<path d="M66.6691 27.9999C64.9781 27.9999 63.4079 27.7392 61.9585 27.2178C60.5332 26.6716 59.422 25.9889 58.6248 25.1696C58.2624 24.7723 58.1054 24.3254 58.1537 23.8289C58.2262 23.3075 58.4678 22.8854 58.8784 22.5627C59.3616 22.1654 59.8326 22.0041 60.2916 22.0786C60.7748 22.1282 61.1854 22.3392 61.5236 22.7117C61.9343 23.1834 62.5865 23.6303 63.4804 24.0523C64.3983 24.4496 65.4129 24.6482 66.5242 24.6482C67.9253 24.6482 68.9882 24.4123 69.7129 23.9406C70.4618 23.4689 70.8483 22.8606 70.8724 22.1158C70.8966 21.371 70.5463 20.7255 69.8216 20.1792C69.121 19.633 67.8286 19.1861 65.9444 18.8386C63.5045 18.342 61.729 17.5972 60.6177 16.6041C59.5307 15.611 58.9871 14.3944 58.9871 12.9544C58.9871 11.6882 59.3495 10.6455 60.0742 9.82618C60.7989 8.98204 61.729 8.36136 62.8644 7.96411C63.9997 7.54205 65.1834 7.33102 66.4155 7.33102C68.0098 7.33102 69.423 7.5917 70.655 8.11308C71.887 8.63446 72.8654 9.35446 73.5901 10.2731C73.9283 10.6703 74.0853 11.0924 74.0612 11.5393C74.037 11.9613 73.8317 12.3213 73.4452 12.6193C73.0586 12.8924 72.5997 12.9793 72.0682 12.88C71.5367 12.7807 71.0898 12.5572 70.7275 12.2096C70.1236 11.6138 69.4713 11.2041 68.7708 10.9807C68.0702 10.7572 67.2609 10.6455 66.343 10.6455C65.2801 10.6455 64.3742 10.8317 63.6253 11.2041C62.9006 11.5765 62.5382 12.1227 62.5382 12.8427C62.5382 13.2896 62.6469 13.6993 62.8644 14.0717C63.1059 14.4193 63.5649 14.742 64.2413 15.04C64.9177 15.3131 65.9081 15.5862 67.2126 15.8593C69.0244 16.2317 70.4497 16.7034 71.4884 17.2744C72.5513 17.8455 73.3123 18.5158 73.7713 19.2855C74.2303 20.0303 74.4597 20.8992 74.4597 21.8923C74.4597 23.0344 74.1578 24.0648 73.5539 24.9834C72.9741 25.902 72.1044 26.6344 70.9449 27.1806C69.8095 27.7268 68.3842 27.9999 66.6691 27.9999Z"/>
<path d="M86.3439 27.8509C85.136 27.8509 84.049 27.5406 83.0827 26.9199C82.1164 26.2744 81.3555 25.4054 80.7998 24.313C80.2442 23.2206 79.9664 21.9917 79.9664 20.6261V2.86206C79.9664 2.31586 80.1355 1.86896 80.4737 1.52138C80.8119 1.17379 81.2467 1 81.7782 1C82.3097 1 82.7445 1.17379 83.0827 1.52138C83.4209 1.86896 83.59 2.31586 83.59 2.86206V20.6261C83.59 21.6192 83.8557 22.451 84.3872 23.1213C84.9186 23.7917 85.5709 24.1268 86.3439 24.1268H87.5759C88.0107 24.1268 88.3731 24.3006 88.663 24.6482C88.977 24.9958 89.134 25.4427 89.134 25.9889C89.134 26.5351 88.9287 26.982 88.518 27.3296C88.1315 27.6772 87.6242 27.8509 86.9961 27.8509H86.3439ZM78.2996 11.4276C77.7923 11.4276 77.3816 11.2786 77.0676 10.9807C76.7535 10.6827 76.5965 10.3103 76.5965 9.86342C76.5965 9.36687 76.7535 8.96963 77.0676 8.6717C77.3816 8.37377 77.7923 8.2248 78.2996 8.2248H86.67C87.1773 8.2248 87.588 8.37377 87.902 8.6717C88.2161 8.96963 88.3731 9.36687 88.3731 9.86342C88.3731 10.3103 88.2161 10.6827 87.902 10.9807C87.588 11.2786 87.1773 11.4276 86.67 11.4276H78.2996Z"/>
<path d="M102.989 27.9999C100.984 27.9999 99.1967 27.5654 97.6265 26.6965C96.0804 25.8027 94.8605 24.5861 93.9667 23.0468C93.097 21.4827 92.6622 19.6951 92.6622 17.6841C92.6622 15.6482 93.0729 13.8606 93.8942 12.3213C94.7397 10.7572 95.8992 9.54066 97.3728 8.6717C98.8464 7.77791 100.537 7.33102 102.446 7.33102C104.33 7.33102 105.949 7.7655 107.301 8.63446C108.654 9.47859 109.681 10.6579 110.381 12.1724C111.106 13.662 111.468 15.3875 111.468 17.3489C111.468 17.8206 111.311 18.2179 110.997 18.5406C110.683 18.8386 110.285 18.9875 109.802 18.9875H95.1987V16.0082H109.693L108.207 17.051C108.183 15.8096 107.942 14.7048 107.483 13.7365C107.024 12.7434 106.371 11.9613 105.526 11.3903C104.68 10.8193 103.654 10.5338 102.446 10.5338C101.069 10.5338 99.8852 10.8441 98.8947 11.4648C97.9284 12.0855 97.1916 12.942 96.6843 14.0344C96.177 15.102 95.9234 16.3186 95.9234 17.6841C95.9234 19.0496 96.2253 20.2661 96.8293 21.3337C97.4332 22.4013 98.2666 23.2454 99.3295 23.8661C100.392 24.4868 101.612 24.7972 102.989 24.7972C103.738 24.7972 104.499 24.6606 105.272 24.3875C106.069 24.0896 106.71 23.7544 107.193 23.382C107.555 23.1089 107.942 22.9723 108.352 22.9723C108.787 22.9475 109.161 23.0717 109.476 23.3448C109.886 23.7172 110.104 24.1268 110.128 24.5737C110.152 25.0206 109.959 25.4054 109.548 25.7282C108.727 26.3985 107.7 26.9447 106.468 27.3668C105.26 27.7889 104.101 27.9999 102.989 27.9999Z"/>
<path d="M117.958 15.1144C117.958 13.6248 118.308 12.2965 119.009 11.1296C119.734 9.9379 120.7 8.99446 121.908 8.29929C123.116 7.60412 124.444 7.25653 125.894 7.25653C127.343 7.25653 128.418 7.50481 129.119 8.00136C129.843 8.47308 130.121 9.04411 129.952 9.71445C129.88 10.062 129.735 10.3351 129.517 10.5338C129.324 10.7076 129.094 10.8193 128.829 10.8689C128.563 10.9186 128.273 10.9062 127.959 10.8317C126.413 10.5089 125.024 10.4841 123.792 10.7572C122.56 11.0303 121.582 11.5393 120.857 12.2841C120.156 13.0289 119.806 13.9724 119.806 15.1144H117.958ZM117.994 27.8509C117.414 27.8509 116.968 27.702 116.654 27.4041C116.34 27.0813 116.182 26.6096 116.182 25.9889V9.34204C116.182 8.74618 116.34 8.28687 116.654 7.96411C116.968 7.64136 117.414 7.47998 117.994 7.47998C118.598 7.47998 119.045 7.64136 119.335 7.96411C119.649 8.26205 119.806 8.72135 119.806 9.34204V25.9889C119.806 26.5847 119.649 27.0441 119.335 27.3668C119.045 27.6896 118.598 27.8509 117.994 27.8509Z"/>
</mask>
<path d="M27.0172 27.8882C26.4857 27.8882 26.0388 27.7144 25.6764 27.3668C25.3382 26.9944 25.1691 26.5351 25.1691 25.9889V15.3379C25.1691 13.7738 24.7947 12.6193 24.0458 11.8744C23.297 11.1048 22.3186 10.72 21.1108 10.72C19.8546 10.72 18.8158 11.1669 17.9945 12.0607C17.1973 12.9544 16.7987 14.0965 16.7987 15.4869H13.7912C13.7912 13.8731 14.1294 12.4579 14.8058 11.2413C15.4822 9.99997 16.4243 9.0317 17.6321 8.33653C18.8642 7.64136 20.2653 7.29377 21.8355 7.29377C23.2124 7.29377 24.4324 7.60412 25.4953 8.2248C26.5582 8.84549 27.3795 9.76411 27.9593 10.9807C28.5632 12.1724 28.8652 13.6248 28.8652 15.3379V25.9889C28.8652 26.5351 28.6961 26.9944 28.3579 27.3668C28.0197 27.7144 27.5728 27.8882 27.0172 27.8882ZM2.84802 27.8882C2.31656 27.8882 1.86965 27.7144 1.5073 27.3668C1.1691 26.9944 1 26.5351 1 25.9889V9.41652C1 8.84549 1.1691 8.38618 1.5073 8.0386C1.86965 7.69101 2.31656 7.51722 2.84802 7.51722C3.40363 7.51722 3.85053 7.69101 4.18873 8.0386C4.52693 8.38618 4.69603 8.84549 4.69603 9.41652V25.9889C4.69603 26.5351 4.52693 26.9944 4.18873 27.3668C3.85053 27.7144 3.40363 27.8882 2.84802 27.8882ZM14.9507 27.8882C14.4192 27.8882 13.9723 27.7144 13.61 27.3668C13.2718 26.9944 13.1027 26.5351 13.1027 25.9889V15.3379C13.1027 13.7738 12.7283 12.6193 11.9794 11.8744C11.2305 11.1048 10.2522 10.72 9.0443 10.72C7.78814 10.72 6.74938 11.1669 5.92804 12.0607C5.1067 12.9544 4.69603 14.0965 4.69603 15.4869H2.41319C2.41319 13.8731 2.72723 12.4579 3.35531 11.2413C3.9834 9.99997 4.85305 9.0317 5.96428 8.33653C7.0755 7.64136 8.34375 7.29377 9.76901 7.29377C11.146 7.29377 12.3659 7.60412 13.4288 8.2248C14.4917 8.84549 15.3131 9.76411 15.8928 10.9807C16.4968 12.1724 16.7987 13.6248 16.7987 15.3379V25.9889C16.7987 26.5351 16.6296 26.9944 16.2914 27.3668C15.9532 27.7144 15.5063 27.8882 14.9507 27.8882Z" fill="#219653"/>
<path d="M43.268 27.9999C41.5045 27.9999 39.9222 27.553 38.5211 26.6592C37.12 25.7406 36.0088 24.5116 35.1874 22.9723C34.3903 21.4082 33.9917 19.6455 33.9917 17.6841C33.9917 15.7227 34.4265 13.96 35.2961 12.3958C36.19 10.8317 37.3857 9.60273 38.8835 8.70894C40.4054 7.79032 42.1084 7.33102 43.9927 7.33102C45.8769 7.33102 47.5679 7.79032 49.0657 8.70894C50.5634 9.60273 51.7471 10.8317 52.6168 12.3958C53.5106 13.96 53.9575 15.7227 53.9575 17.6841H52.5443C52.5443 19.6455 52.1336 21.4082 51.3123 22.9723C50.5151 24.5116 49.4159 25.7406 48.0148 26.6592C46.6137 27.553 45.0314 27.9999 43.268 27.9999ZM43.9927 24.6482C45.2247 24.6482 46.3238 24.3503 47.2901 23.7544C48.2564 23.1337 49.0174 22.302 49.573 21.2592C50.1286 20.1917 50.4064 18.9999 50.4064 17.6841C50.4064 16.3434 50.1286 15.1517 49.573 14.1089C49.0174 13.0413 48.2564 12.2096 47.2901 11.6138C46.3238 10.9931 45.2247 10.6827 43.9927 10.6827C42.7848 10.6827 41.6857 10.9931 40.6952 11.6138C39.729 12.2096 38.9559 13.0413 38.3762 14.1089C37.8206 15.1517 37.5427 16.3434 37.5427 17.6841C37.5427 18.9999 37.8206 20.1917 38.3762 21.2592C38.9559 22.302 39.729 23.1337 40.6952 23.7544C41.6857 24.3503 42.7848 24.6482 43.9927 24.6482ZM52.1095 27.8882C51.578 27.8882 51.1311 27.7144 50.7687 27.3668C50.4305 26.9944 50.2614 26.5351 50.2614 25.9889V20.291L50.9499 16.3434L53.9575 17.6841V25.9889C53.9575 26.5351 53.7763 26.9944 53.4139 27.3668C53.0757 27.7144 52.6409 27.8882 52.1095 27.8882Z" fill="#219653"/>
<path d="M66.6691 27.9999C64.9781 27.9999 63.4079 27.7392 61.9585 27.2178C60.5332 26.6716 59.422 25.9889 58.6248 25.1696C58.2624 24.7723 58.1054 24.3254 58.1537 23.8289C58.2262 23.3075 58.4678 22.8854 58.8784 22.5627C59.3616 22.1654 59.8326 22.0041 60.2916 22.0786C60.7748 22.1282 61.1854 22.3392 61.5236 22.7117C61.9343 23.1834 62.5865 23.6303 63.4804 24.0523C64.3983 24.4496 65.4129 24.6482 66.5242 24.6482C67.9253 24.6482 68.9882 24.4123 69.7129 23.9406C70.4618 23.4689 70.8483 22.8606 70.8724 22.1158C70.8966 21.371 70.5463 20.7255 69.8216 20.1792C69.121 19.633 67.8286 19.1861 65.9444 18.8386C63.5045 18.342 61.729 17.5972 60.6177 16.6041C59.5307 15.611 58.9871 14.3944 58.9871 12.9544C58.9871 11.6882 59.3495 10.6455 60.0742 9.82618C60.7989 8.98204 61.729 8.36136 62.8644 7.96411C63.9997 7.54205 65.1834 7.33102 66.4155 7.33102C68.0098 7.33102 69.423 7.5917 70.655 8.11308C71.887 8.63446 72.8654 9.35446 73.5901 10.2731C73.9283 10.6703 74.0853 11.0924 74.0612 11.5393C74.037 11.9613 73.8317 12.3213 73.4452 12.6193C73.0586 12.8924 72.5997 12.9793 72.0682 12.88C71.5367 12.7807 71.0898 12.5572 70.7275 12.2096C70.1236 11.6138 69.4713 11.2041 68.7708 10.9807C68.0702 10.7572 67.2609 10.6455 66.343 10.6455C65.2801 10.6455 64.3742 10.8317 63.6253 11.2041C62.9006 11.5765 62.5382 12.1227 62.5382 12.8427C62.5382 13.2896 62.6469 13.6993 62.8644 14.0717C63.1059 14.4193 63.5649 14.742 64.2413 15.04C64.9177 15.3131 65.9081 15.5862 67.2126 15.8593C69.0244 16.2317 70.4497 16.7034 71.4884 17.2744C72.5513 17.8455 73.3123 18.5158 73.7713 19.2855C74.2303 20.0303 74.4597 20.8992 74.4597 21.8923C74.4597 23.0344 74.1578 24.0648 73.5539 24.9834C72.9741 25.902 72.1044 26.6344 70.9449 27.1806C69.8095 27.7268 68.3842 27.9999 66.6691 27.9999Z" fill="#219653"/>
<path d="M86.3439 27.8509C85.136 27.8509 84.049 27.5406 83.0827 26.9199C82.1164 26.2744 81.3555 25.4054 80.7998 24.313C80.2442 23.2206 79.9664 21.9917 79.9664 20.6261V2.86206C79.9664 2.31586 80.1355 1.86896 80.4737 1.52138C80.8119 1.17379 81.2467 1 81.7782 1C82.3097 1 82.7445 1.17379 83.0827 1.52138C83.4209 1.86896 83.59 2.31586 83.59 2.86206V20.6261C83.59 21.6192 83.8557 22.451 84.3872 23.1213C84.9186 23.7917 85.5709 24.1268 86.3439 24.1268H87.5759C88.0107 24.1268 88.3731 24.3006 88.663 24.6482C88.977 24.9958 89.134 25.4427 89.134 25.9889C89.134 26.5351 88.9287 26.982 88.518 27.3296C88.1315 27.6772 87.6242 27.8509 86.9961 27.8509H86.3439ZM78.2996 11.4276C77.7923 11.4276 77.3816 11.2786 77.0676 10.9807C76.7535 10.6827 76.5965 10.3103 76.5965 9.86342C76.5965 9.36687 76.7535 8.96963 77.0676 8.6717C77.3816 8.37377 77.7923 8.2248 78.2996 8.2248H86.67C87.1773 8.2248 87.588 8.37377 87.902 8.6717C88.2161 8.96963 88.3731 9.36687 88.3731 9.86342C88.3731 10.3103 88.2161 10.6827 87.902 10.9807C87.588 11.2786 87.1773 11.4276 86.67 11.4276H78.2996Z" fill="#219653"/>
<path d="M102.989 27.9999C100.984 27.9999 99.1967 27.5654 97.6265 26.6965C96.0804 25.8027 94.8605 24.5861 93.9667 23.0468C93.097 21.4827 92.6622 19.6951 92.6622 17.6841C92.6622 15.6482 93.0729 13.8606 93.8942 12.3213C94.7397 10.7572 95.8992 9.54066 97.3728 8.6717C98.8464 7.77791 100.537 7.33102 102.446 7.33102C104.33 7.33102 105.949 7.7655 107.301 8.63446C108.654 9.47859 109.681 10.6579 110.381 12.1724C111.106 13.662 111.468 15.3875 111.468 17.3489C111.468 17.8206 111.311 18.2179 110.997 18.5406C110.683 18.8386 110.285 18.9875 109.802 18.9875H95.1987V16.0082H109.693L108.207 17.051C108.183 15.8096 107.942 14.7048 107.483 13.7365C107.024 12.7434 106.371 11.9613 105.526 11.3903C104.68 10.8193 103.654 10.5338 102.446 10.5338C101.069 10.5338 99.8852 10.8441 98.8947 11.4648C97.9284 12.0855 97.1916 12.942 96.6843 14.0344C96.177 15.102 95.9234 16.3186 95.9234 17.6841C95.9234 19.0496 96.2253 20.2661 96.8293 21.3337C97.4332 22.4013 98.2666 23.2454 99.3295 23.8661C100.392 24.4868 101.612 24.7972 102.989 24.7972C103.738 24.7972 104.499 24.6606 105.272 24.3875C106.069 24.0896 106.71 23.7544 107.193 23.382C107.555 23.1089 107.942 22.9723 108.352 22.9723C108.787 22.9475 109.161 23.0717 109.476 23.3448C109.886 23.7172 110.104 24.1268 110.128 24.5737C110.152 25.0206 109.959 25.4054 109.548 25.7282C108.727 26.3985 107.7 26.9447 106.468 27.3668C105.26 27.7889 104.101 27.9999 102.989 27.9999Z" fill="#219653"/>
<path d="M117.958 15.1144C117.958 13.6248 118.308 12.2965 119.009 11.1296C119.734 9.9379 120.7 8.99446 121.908 8.29929C123.116 7.60412 124.444 7.25653 125.894 7.25653C127.343 7.25653 128.418 7.50481 129.119 8.00136C129.843 8.47308 130.121 9.04411 129.952 9.71445C129.88 10.062 129.735 10.3351 129.517 10.5338C129.324 10.7076 129.094 10.8193 128.829 10.8689C128.563 10.9186 128.273 10.9062 127.959 10.8317C126.413 10.5089 125.024 10.4841 123.792 10.7572C122.56 11.0303 121.582 11.5393 120.857 12.2841C120.156 13.0289 119.806 13.9724 119.806 15.1144H117.958ZM117.994 27.8509C117.414 27.8509 116.968 27.702 116.654 27.4041C116.34 27.0813 116.182 26.6096 116.182 25.9889V9.34204C116.182 8.74618 116.34 8.28687 116.654 7.96411C116.968 7.64136 117.414 7.47998 117.994 7.47998C118.598 7.47998 119.045 7.64136 119.335 7.96411C119.649 8.26205 119.806 8.72135 119.806 9.34204V25.9889C119.806 26.5847 119.649 27.0441 119.335 27.3668C119.045 27.6896 118.598 27.8509 117.994 27.8509Z" fill="#219653"/>
<path d="M25.6764 27.3668L25.4553 27.5676L25.4623 27.5752L25.4697 27.5824L25.6764 27.3668ZM24.0458 11.8744L23.8317 12.0828L23.8352 12.0862L24.0458 11.8744ZM17.9945 12.0607L17.7745 11.8585L17.7716 11.8618L17.9945 12.0607ZM16.7987 15.4869V15.7855H17.0974V15.4869H16.7987ZM13.7912 15.4869H13.4925V15.7855H13.7912V15.4869ZM14.8058 11.2413L15.0668 11.3865L15.068 11.3843L14.8058 11.2413ZM17.6321 8.33653L17.4854 8.07639L17.4832 8.07766L17.6321 8.33653ZM25.4953 8.2248L25.3446 8.48273H25.3447L25.4953 8.2248ZM27.9593 10.9807L27.6896 11.1092L27.6929 11.1157L27.9593 10.9807ZM28.3579 27.3668L28.5721 27.5752L28.579 27.5676L28.3579 27.3668ZM1.5073 27.3668L1.28619 27.5676L1.29311 27.5752L1.30054 27.5824L1.5073 27.3668ZM1.5073 8.0386L1.30042 7.82292L1.29323 7.83031L1.5073 8.0386ZM4.18873 27.3668L4.40293 27.5752L4.40984 27.5676L4.18873 27.3668ZM13.61 27.3668L13.3889 27.5676L13.3958 27.5752L13.4032 27.5824L13.61 27.3668ZM11.9794 11.8744L11.7653 12.0828L11.7688 12.0862L11.9794 11.8744ZM5.92804 12.0607L5.70812 11.8586L5.92804 12.0607ZM4.69603 15.4869V15.7855H4.99471V15.4869H4.69603ZM2.41319 15.4869H2.11451V15.7855H2.41319V15.4869ZM3.35531 11.2413L3.62072 11.3784L3.62182 11.3762L3.35531 11.2413ZM5.96428 8.33653L5.80587 8.08331V8.08331L5.96428 8.33653ZM13.4288 8.2248L13.2782 8.48273L13.4288 8.2248ZM15.8928 10.9807L15.6231 11.1092L15.6264 11.1157L15.8928 10.9807ZM16.2914 27.3668L16.5056 27.5752L16.5125 27.5676L16.2914 27.3668ZM38.5211 26.6592L38.3573 26.909L38.3605 26.911L38.5211 26.6592ZM35.1874 22.9723L34.9213 23.108L34.9239 23.1129L35.1874 22.9723ZM35.2961 12.3958L35.0368 12.2476L35.0351 12.2507L35.2961 12.3958ZM38.8835 8.70894L39.0365 8.96543L39.0378 8.96465L38.8835 8.70894ZM49.0657 8.70894L48.9095 8.96357L48.9126 8.96542L49.0657 8.70894ZM52.6168 12.3958L52.3557 12.541L52.3574 12.544L52.6168 12.3958ZM52.5443 17.6841V17.3854H52.2456V17.6841H52.5443ZM51.3123 22.9723L51.0478 22.8335L51.0471 22.835L51.3123 22.9723ZM48.0148 26.6592L48.1755 26.9111L48.1786 26.909L48.0148 26.6592ZM47.2901 23.7544L47.4469 24.0087L47.4515 24.0057L47.2901 23.7544ZM49.573 21.2592L49.8366 21.3997L49.8379 21.3971L49.573 21.2592ZM49.573 14.1089L49.308 14.2468L49.3094 14.2494L49.573 14.1089ZM47.2901 11.6138L47.1287 11.8651L47.1334 11.868L47.2901 11.6138ZM40.6952 11.6138L40.852 11.868L40.8539 11.8668L40.6952 11.6138ZM38.3762 14.1089L38.1137 13.9664L38.1126 13.9685L38.3762 14.1089ZM38.3762 21.2592L38.1111 21.3972L38.1151 21.4044L38.3762 21.2592ZM40.6952 23.7544L40.5338 24.0058L40.5413 24.0103L40.6952 23.7544ZM50.7687 27.3668L50.5476 27.5676L50.5546 27.5752L50.562 27.5824L50.7687 27.3668ZM50.2614 20.291L49.9672 20.2397L49.9628 20.2651V20.291H50.2614ZM50.9499 16.3434L51.0715 16.0706L50.7215 15.9146L50.6557 16.2921L50.9499 16.3434ZM53.4139 27.3668L53.628 27.5751L53.4139 27.3668ZM61.9585 27.2178L61.8516 27.4968L61.8574 27.4989L61.9585 27.2178ZM58.6248 25.1696L58.404 25.371L58.4107 25.3779L58.6248 25.1696ZM58.1537 23.8289L57.8576 23.7877L57.8565 23.8L58.1537 23.8289ZM58.8784 22.5627L59.063 22.7976L59.0681 22.7934L58.8784 22.5627ZM60.2916 22.0786L60.2438 22.3734L60.2524 22.3748L60.2611 22.3757L60.2916 22.0786ZM61.5236 22.7117L61.749 22.5155L61.7448 22.5109L61.5236 22.7117ZM63.4804 24.0523L63.3528 24.3226L63.3617 24.3265L63.4804 24.0523ZM69.7129 23.9406L69.5537 23.6879L69.5499 23.6903L69.7129 23.9406ZM70.8724 22.1158L71.171 22.1255L70.8724 22.1158ZM69.8216 20.1792L69.6379 20.4148L69.6418 20.4178L69.8216 20.1792ZM65.9444 18.8386L65.8848 19.1313L65.8902 19.1323L65.9444 18.8386ZM60.6177 16.6041L60.4163 16.8246L60.4187 16.8268L60.6177 16.6041ZM60.0742 9.82618L60.298 10.0241L60.3008 10.0207L60.0742 9.82618ZM62.8644 7.96411L62.963 8.24609L62.9684 8.24408L62.8644 7.96411ZM70.655 8.11308L70.7714 7.83802V7.83802L70.655 8.11308ZM73.5901 10.2731L73.3554 10.4582L73.3627 10.4667L73.5901 10.2731ZM74.0612 11.5393L74.3594 11.5563L74.3594 11.5554L74.0612 11.5393ZM73.4452 12.6193L73.6177 12.8634L73.6275 12.8558L73.4452 12.6193ZM72.0682 12.88L72.0133 13.1736L72.0682 12.88ZM70.7275 12.2096L70.5177 12.4223L70.5207 12.4252L70.7275 12.2096ZM68.7708 10.9807L68.68 11.2652L68.7708 10.9807ZM63.6253 11.2041L63.4923 10.9366L63.4888 10.9384L63.6253 11.2041ZM62.8644 14.0717L62.6064 14.2223L62.6124 14.2325L62.6191 14.2421L62.8644 14.0717ZM64.2413 15.04L64.1209 15.3134L64.1295 15.3169L64.2413 15.04ZM67.2126 15.8593L67.1514 16.1516L67.1525 16.1518L67.2126 15.8593ZM71.4884 17.2744L71.3445 17.5362L71.3471 17.5375L71.4884 17.2744ZM73.7713 19.2855L73.5147 19.4385L73.517 19.4422L73.7713 19.2855ZM73.5539 24.9834L73.3042 24.8193L73.3013 24.824L73.5539 24.9834ZM70.9449 27.1806L70.8176 26.9104L70.8154 26.9115L70.9449 27.1806ZM83.0827 26.9199L82.9167 27.1683L82.9213 27.1712L83.0827 26.9199ZM80.7998 24.313L80.5336 24.4484L80.7998 24.313ZM83.0827 1.52138L83.2968 1.31309V1.31309L83.0827 1.52138ZM84.3872 23.1213L84.6212 22.9358L84.3872 23.1213ZM88.663 24.6482L88.4334 24.8397L88.4413 24.8484L88.663 24.6482ZM88.518 27.3296L88.325 27.1015L88.3183 27.1075L88.518 27.3296ZM77.0676 10.9807L76.862 11.1973V11.1973L77.0676 10.9807ZM77.0676 8.6717L76.862 8.45501V8.45501L77.0676 8.6717ZM87.902 8.6717L88.1076 8.45501V8.45501L87.902 8.6717ZM87.902 10.9807L88.1076 11.1973L87.902 10.9807ZM97.6265 26.6965L97.477 26.9551L97.4818 26.9578L97.6265 26.6965ZM93.9667 23.0468L93.7056 23.192L93.7084 23.1968L93.9667 23.0468ZM93.8942 12.3213L93.6314 12.1793L93.6307 12.1807L93.8942 12.3213ZM97.3728 8.6717L97.5245 8.929L97.5277 8.92708L97.3728 8.6717ZM107.301 8.63446L107.14 8.88578L107.143 8.88785L107.301 8.63446ZM110.381 12.1724L110.11 12.2978L110.113 12.303L110.381 12.1724ZM110.997 18.5406L111.203 18.7575L111.211 18.7489L110.997 18.5406ZM95.1987 18.9875H94.9V19.2862H95.1987V18.9875ZM95.1987 16.0082V15.7095H94.9V16.0082H95.1987ZM109.693 16.0082L109.865 16.2527L110.638 15.7095H109.693V16.0082ZM108.207 17.051L107.909 17.0568L107.92 17.6178L108.379 17.2955L108.207 17.051ZM107.483 13.7365L107.211 13.8618L107.213 13.8644L107.483 13.7365ZM98.8947 11.4648L98.7361 11.2117L98.7333 11.2135L98.8947 11.4648ZM96.6843 14.0344L96.9541 14.1626L96.9552 14.1602L96.6843 14.0344ZM96.8293 21.3337L96.5693 21.4808L96.8293 21.3337ZM99.3295 23.8661L99.4802 23.6082L99.3295 23.8661ZM105.272 24.3875L105.372 24.6692L105.377 24.6673L105.272 24.3875ZM107.193 23.382L107.013 23.1435L107.01 23.1454L107.193 23.382ZM108.352 22.9723V23.271H108.361L108.369 23.2705L108.352 22.9723ZM109.476 23.3448L109.676 23.1235L109.671 23.1194L109.476 23.3448ZM110.128 24.5737L110.426 24.5576L110.128 24.5737ZM109.548 25.7282L109.363 25.4933L109.359 25.4968L109.548 25.7282ZM106.468 27.3668L106.371 27.0842L106.369 27.0849L106.468 27.3668ZM117.958 15.1144H117.659V15.4131H117.958V15.1144ZM119.009 11.1296L118.754 10.9744L118.753 10.9759L119.009 11.1296ZM121.908 8.29929L121.759 8.04042L121.908 8.29929ZM129.119 8.00136L128.946 8.24522L128.956 8.25168L129.119 8.00136ZM129.952 9.71445L129.662 9.64134L129.66 9.65349L129.952 9.71445ZM129.517 10.5338L129.717 10.7559L129.719 10.7543L129.517 10.5338ZM128.829 10.8689L128.774 10.5753L128.829 10.8689ZM127.959 10.8317L128.028 10.541L128.02 10.5393L127.959 10.8317ZM120.857 12.2841L120.643 12.0758L120.639 12.0795L120.857 12.2841ZM119.806 15.1144V15.4131H120.105V15.1144H119.806ZM116.654 27.4041L116.439 27.6125L116.448 27.6207L116.654 27.4041ZM116.654 7.96411L116.868 8.1724L116.654 7.96411ZM119.335 7.96411L119.113 8.16369L119.121 8.17258L119.129 8.1808L119.335 7.96411ZM119.335 27.3668L119.121 27.1584L119.113 27.1672L119.335 27.3668ZM27.0172 27.5895C26.5578 27.5895 26.1865 27.4422 25.8832 27.1513L25.4697 27.5824C25.8911 27.9866 26.4136 28.1869 27.0172 28.1869V27.5895ZM25.8976 27.166C25.6137 26.8535 25.4678 26.4678 25.4678 25.9889H24.8705C24.8705 26.6024 25.0627 27.1353 25.4553 27.5676L25.8976 27.166ZM25.4678 25.9889V15.3379H24.8705V25.9889H25.4678ZM25.4678 15.3379C25.4678 13.7323 25.0839 12.4856 24.2565 11.6627L23.8352 12.0862C24.5055 12.7529 24.8705 13.8152 24.8705 15.3379H25.4678ZM24.2599 11.6662C23.4476 10.8313 22.3882 10.4213 21.1108 10.4213V11.0187C22.249 11.0187 23.1464 11.3783 23.8318 12.0827L24.2599 11.6662ZM21.1108 10.4213C19.7743 10.4213 18.6547 10.9008 17.7746 11.8586L18.2144 12.2628C18.977 11.4329 19.9349 11.0187 21.1108 11.0187V10.4213ZM17.7716 11.8618C16.9179 12.819 16.5 14.0357 16.5 15.4869H17.0974C17.0974 14.1573 17.4768 13.0898 18.2174 12.2595L17.7716 11.8618ZM16.7987 15.1882H13.7912V15.7855H16.7987V15.1882ZM14.0898 15.4869C14.0898 13.9157 14.4188 12.552 15.0668 11.3865L14.5447 11.0962C13.84 12.3638 13.4925 13.8304 13.4925 15.4869H14.0898ZM15.068 11.3843C15.7185 10.1905 16.6217 9.26268 17.7811 8.5954L17.4832 8.07766C16.2268 8.80072 15.2458 9.80944 14.5435 11.0984L15.068 11.3843ZM17.7789 8.59665C18.9614 7.92946 20.3109 7.59245 21.8355 7.59245V6.99509C20.2196 6.99509 18.7669 7.35326 17.4854 8.0764L17.7789 8.59665ZM21.8355 7.59245C23.1659 7.59245 24.3327 7.8918 25.3446 8.48273L25.6459 7.96688C24.532 7.31644 23.2589 6.99509 21.8355 6.99509V7.59245ZM25.3447 8.48273C26.3509 9.07033 27.1331 9.94135 27.6897 11.1092L28.2289 10.8522C27.6259 9.58687 26.7655 8.62066 25.6459 7.96688L25.3447 8.48273ZM27.6929 11.1157C28.2705 12.2554 28.5665 13.6589 28.5665 15.3379H29.1639C29.1639 13.5907 28.856 12.0893 28.2257 10.8456L27.6929 11.1157ZM28.5665 15.3379V25.9889H29.1639V15.3379H28.5665ZM28.5665 25.9889C28.5665 26.4678 28.4206 26.8535 28.1368 27.166L28.579 27.5676C28.9716 27.1353 29.1639 26.6024 29.1639 25.9889H28.5665ZM28.1438 27.1585C27.8702 27.4397 27.5049 27.5895 27.0172 27.5895V28.1869C27.6406 28.1869 28.1692 27.9891 28.5719 27.5751L28.1438 27.1585ZM2.84802 27.5895C2.38866 27.5895 2.01732 27.4422 1.71406 27.1513L1.30054 27.5824C1.72199 27.9866 2.24446 28.1869 2.84802 28.1869V27.5895ZM1.72841 27.166C1.44459 26.8535 1.29868 26.4678 1.29868 25.9889H0.701319C0.701319 26.6024 0.893608 27.1353 1.28619 27.5676L1.72841 27.166ZM1.29868 25.9889V9.41652H0.701319V25.9889H1.29868ZM1.29868 9.41652C1.29868 8.90849 1.44694 8.52893 1.72137 8.24689L1.29323 7.83031C0.891261 8.24343 0.701319 8.78249 0.701319 9.41652H1.29868ZM1.71406 8.25415C2.01731 7.96325 2.38866 7.8159 2.84802 7.8159V7.21854C2.24446 7.21854 1.72199 7.41878 1.30054 7.82305L1.71406 8.25415ZM2.84802 7.8159C3.3358 7.8159 3.70104 7.96567 3.97466 8.24689L4.4028 7.83031C4.00003 7.41636 3.47145 7.21854 2.84802 7.21854V7.8159ZM3.97466 8.24689C4.24909 8.52893 4.39735 8.90849 4.39735 9.41652H4.99471C4.99471 8.7825 4.80477 8.24343 4.4028 7.83031L3.97466 8.24689ZM4.39735 9.41652V25.9889H4.99471V9.41652H4.39735ZM4.39735 25.9889C4.39735 26.4678 4.25144 26.8535 3.96762 27.166L4.40984 27.5676C4.80242 27.1353 4.99471 26.6024 4.99471 25.9889H4.39735ZM3.97466 27.1585C3.70104 27.4397 3.3358 27.5895 2.84802 27.5895V28.1869C3.47145 28.1869 4.00003 27.9891 4.4028 27.5751L3.97466 27.1585ZM14.9507 27.5895C14.4913 27.5895 14.12 27.4422 13.8167 27.1513L13.4032 27.5824C13.8247 27.9866 14.3472 28.1869 14.9507 28.1869V27.5895ZM13.8311 27.166C13.5473 26.8535 13.4014 26.4678 13.4014 25.9889H12.804C12.804 26.6024 12.9963 27.1353 13.3889 27.5676L13.8311 27.166ZM13.4014 25.9889V15.3379H12.804V25.9889H13.4014ZM13.4014 15.3379C13.4014 13.7323 13.0174 12.4856 12.19 11.6627L11.7688 12.0862C12.4391 12.7529 12.804 13.8152 12.804 15.3379H13.4014ZM12.1935 11.6662C11.3811 10.8313 10.3218 10.4213 9.0443 10.4213V11.0187C10.1826 11.0187 11.0799 11.3783 11.7653 12.0827L12.1935 11.6662ZM9.0443 10.4213C7.70784 10.4213 6.58821 10.9008 5.70812 11.8586L6.14797 12.2628C6.91055 11.4329 7.86843 11.0187 9.0443 11.0187V10.4213ZM5.70812 11.8586C4.82875 12.8155 4.39735 14.0333 4.39735 15.4869H4.99471C4.99471 14.1597 5.38465 13.0934 6.14797 12.2628L5.70812 11.8586ZM4.69603 15.1882H2.41319V15.7855H4.69603V15.1882ZM2.71187 15.4869C2.71187 13.9122 3.01809 12.5456 3.62071 11.3784L3.08992 11.1043C2.43637 12.3702 2.11451 13.8339 2.11451 15.4869H2.71187ZM3.62182 11.3762C4.2269 10.1803 5.06047 9.25425 6.12268 8.58974L5.80587 8.08331C4.64563 8.80915 3.73989 9.81966 3.0888 11.1065L3.62182 11.3762ZM6.12268 8.58974C7.18228 7.92687 8.39469 7.59245 9.76901 7.59245V6.99509C8.29281 6.99509 6.96872 7.35585 5.80587 8.08331L6.12268 8.58974ZM9.76901 7.59245C11.0995 7.59245 12.2662 7.8918 13.2782 8.48273L13.5794 7.96688C12.4656 7.31644 11.1925 6.99509 9.76901 6.99509V7.59245ZM13.2782 8.48273C14.2844 9.07033 15.0667 9.94135 15.6232 11.1092L16.1625 10.8522C15.5595 9.58687 14.699 8.62066 13.5794 7.96688L13.2782 8.48273ZM15.6264 11.1157C16.204 12.2554 16.5 13.6589 16.5 15.3379H17.0974C17.0974 13.5907 16.7895 12.0893 16.1593 10.8456L15.6264 11.1157ZM16.5 15.3379V25.9889H17.0974V15.3379H16.5ZM16.5 25.9889C16.5 26.4678 16.3541 26.8535 16.0703 27.166L16.5125 27.5676C16.9051 27.1353 17.0974 26.6024 17.0974 25.9889H16.5ZM16.0774 27.1585C15.8037 27.4397 15.4385 27.5895 14.9507 27.5895V28.1869C15.5741 28.1869 16.1027 27.9891 16.5055 27.5751L16.0774 27.1585ZM43.268 27.7012C41.5578 27.7012 40.0319 27.2687 38.6817 26.4074L38.3605 26.911C39.8126 27.8373 41.4512 28.2986 43.268 28.2986V27.7012ZM38.6849 26.4094C37.3274 25.5194 36.2497 24.3288 35.451 22.8317L34.9239 23.1129C35.7678 24.6945 36.9126 25.9618 38.3573 26.909L38.6849 26.4094ZM35.4535 22.8367C34.6802 21.3193 34.2903 19.6039 34.2903 17.6841H33.693C33.693 19.687 34.1003 21.4971 34.9213 23.108L35.4535 22.8367ZM34.2903 17.6841C34.2903 15.7685 34.7145 14.0565 35.5572 12.541L35.0351 12.2507C34.1384 13.8634 33.693 15.6769 33.693 17.6841H34.2903ZM35.5555 12.544C36.4246 11.023 37.5844 9.83198 39.0365 8.96542L38.7304 8.45246C37.187 9.37349 35.9553 10.6404 35.0368 12.2476L35.5555 12.544ZM39.0378 8.96465C40.5103 8.07585 42.1594 7.6297 43.9927 7.6297V7.03233C42.0574 7.03233 40.3004 7.5048 38.7291 8.45323L39.0378 8.96465ZM43.9927 7.6297C45.826 7.6297 47.4622 8.07585 48.9095 8.96355L49.2218 8.45434C47.6737 7.5048 45.9279 7.03233 43.9927 7.03233V7.6297ZM48.9126 8.96542C50.364 9.83153 51.5109 11.0216 52.3557 12.541L52.8778 12.2507C51.9833 10.6418 50.7629 9.37393 49.2187 8.45246L48.9126 8.96542ZM52.3574 12.544C53.2232 14.0591 53.6588 15.7699 53.6588 17.6841H54.2562C54.2562 15.6755 53.7979 13.8608 52.8761 12.2476L52.3574 12.544ZM53.9575 17.3854H52.5443V17.9828H53.9575V17.3854ZM52.2456 17.6841C52.2456 19.6025 51.8443 21.3167 51.0478 22.8335L51.5767 23.1112C52.4229 21.4997 52.843 19.6884 52.843 17.6841H52.2456ZM51.0471 22.835C50.2726 24.3304 49.2077 25.52 47.8511 26.4094L48.1786 26.909C49.6242 25.9613 50.7576 24.6929 51.5775 23.1097L51.0471 22.835ZM47.8542 26.4074C46.5041 27.2687 44.9782 27.7012 43.268 27.7012V28.2986C45.0847 28.2986 46.7234 27.8373 48.1755 26.911L47.8542 26.4074ZM43.9927 24.9469C45.2752 24.9469 46.4295 24.636 47.4469 24.0086L47.1334 23.5002C46.2182 24.0645 45.1742 24.3495 43.9927 24.3495V24.9469ZM47.4515 24.0057C48.4621 23.3566 49.2577 22.4862 49.8366 21.3997L49.3094 21.1188C48.7771 22.1178 48.0507 22.9108 47.1287 23.5031L47.4515 24.0057ZM49.8379 21.3971C50.4177 20.2831 50.7051 19.0434 50.7051 17.6841H50.1077C50.1077 18.9565 49.8395 20.1002 49.308 21.1214L49.8379 21.3971ZM50.7051 17.6841C50.7051 16.3011 50.4182 15.06 49.8366 13.9685L49.3094 14.2494C49.839 15.2434 50.1077 16.3857 50.1077 17.6841H50.7051ZM49.8379 13.971C49.259 12.8586 48.4619 11.9854 47.4469 11.3595L47.1334 11.868C48.0509 12.4338 48.7757 13.2241 49.308 14.2468L49.8379 13.971ZM47.4515 11.3625C46.4336 10.7086 45.2776 10.384 43.9927 10.384V10.9814C45.1718 10.9814 46.2141 11.2776 47.1287 11.8651L47.4515 11.3625ZM43.9927 10.384C42.7307 10.384 41.5763 10.7092 40.5366 11.3607L40.8539 11.8668C41.7951 11.277 42.839 10.9814 43.9927 10.9814V10.384ZM40.5385 11.3595C39.5247 11.9847 38.7165 12.8563 38.1137 13.9664L38.6386 14.2515C39.1953 13.2264 39.9332 12.4346 40.852 11.868L40.5385 11.3595ZM38.1126 13.9685C37.531 15.06 37.2441 16.3011 37.2441 17.6841H37.8414C37.8414 16.3857 38.1101 15.2434 38.6398 14.2494L38.1126 13.9685ZM37.2441 17.6841C37.2441 19.0434 37.5314 20.2831 38.1112 21.3971L38.6411 21.1214C38.1097 20.1002 37.8414 18.9565 37.8414 17.6841H37.2441ZM38.1151 21.4044C38.7179 22.4885 39.5244 23.3573 40.5338 24.0057L40.8567 23.5031C39.9335 22.9101 39.194 22.1155 38.6372 21.1141L38.1151 21.4044ZM40.5413 24.0103C41.5803 24.6355 42.7331 24.9469 43.9927 24.9469V24.3495C42.8365 24.3495 41.791 24.0651 40.8492 23.4985L40.5413 24.0103ZM52.1095 27.5895C51.6501 27.5895 51.2788 27.4422 50.9755 27.1513L50.562 27.5824C50.9834 27.9866 51.5059 28.1869 52.1095 28.1869V27.5895ZM50.9899 27.166C50.706 26.8535 50.5601 26.4678 50.5601 25.9889H49.9628C49.9628 26.6024 50.1551 27.1353 50.5476 27.5676L50.9899 27.166ZM50.5601 25.9889V20.291H49.9628V25.9889H50.5601ZM50.5557 20.3423L51.2442 16.3947L50.6557 16.2921L49.9672 20.2397L50.5557 20.3423ZM50.8283 16.6162L53.8359 17.9569L54.0791 17.4113L51.0715 16.0706L50.8283 16.6162ZM53.6588 17.6841V25.9889H54.2562V17.6841H53.6588ZM53.6588 25.9889C53.6588 26.4617 53.505 26.845 53.1999 27.1585L53.628 27.5751C54.0476 27.1438 54.2562 26.6085 54.2562 25.9889H53.6588ZM53.1999 27.1585C52.9236 27.4425 52.5688 27.5895 52.1095 27.5895V28.1869C52.713 28.1869 53.2279 27.9863 53.628 27.5751L53.1999 27.1585ZM66.6691 27.7012C65.0092 27.7012 63.4735 27.4454 62.0596 26.9368L61.8574 27.4989C63.3422 28.033 64.947 28.2986 66.6691 28.2986V27.7012ZM62.0653 26.9389C60.6676 26.4033 59.5975 25.741 58.8389 24.9613L58.4107 25.3779C59.2464 26.2368 60.3988 26.94 61.8516 27.4967L62.0653 26.9389ZM58.8455 24.9683C58.5351 24.628 58.4116 24.2632 58.451 23.8578L57.8565 23.8C57.7993 24.3877 57.9898 24.9166 58.4041 25.3709L58.8455 24.9683ZM58.4496 23.87C58.5115 23.4245 58.7136 23.0721 59.063 22.7975L58.6939 22.3279C58.2219 22.6988 57.9409 23.1905 57.8579 23.7878L58.4496 23.87ZM59.0681 22.7934C59.509 22.4309 59.896 22.3169 60.2438 22.3734L60.3395 21.7837C59.7692 21.6912 59.2141 21.9 58.6887 22.332L59.0681 22.7934ZM60.2611 22.3757C60.6682 22.4175 61.0119 22.5924 61.3025 22.9125L61.7448 22.5109C61.359 22.0861 60.8814 21.8389 60.3222 21.7814L60.2611 22.3757ZM61.2984 22.9078C61.7473 23.4235 62.441 23.8918 63.3528 24.3224L63.6079 23.7823C62.7321 23.3687 62.1213 22.9433 61.7489 22.5155L61.2984 22.9078ZM63.3617 24.3265C64.3211 24.7416 65.3767 24.9469 66.5242 24.9469V24.3495C65.4492 24.3495 64.4755 24.1575 63.599 23.7782L63.3617 24.3265ZM66.5242 24.9469C67.9506 24.9469 69.0811 24.7082 69.8758 24.1909L69.5499 23.6903C68.8952 24.1165 67.9 24.3495 66.5242 24.3495V24.9469ZM69.8721 24.1933C70.6868 23.6802 71.1429 22.989 71.171 22.1255L70.5739 22.1061C70.5536 22.7322 70.2368 23.2576 69.5537 23.6879L69.8721 24.1933ZM71.171 22.1255C71.199 21.2618 70.7846 20.531 70.0014 19.9407L69.6418 20.4178C70.3081 20.9199 70.5942 21.4801 70.5739 22.1061L71.171 22.1255ZM70.0052 19.9437C69.2432 19.3496 67.8874 18.8933 65.9986 18.5448L65.8902 19.1323C67.7698 19.479 68.9988 19.9165 69.6379 20.4148L70.0052 19.9437ZM66.004 18.5459C63.5851 18.0536 61.8703 17.3229 60.8168 16.3814L60.4187 16.8268C61.5877 17.8715 63.4239 18.6304 65.8848 19.1312L66.004 18.5459ZM60.8192 16.3836C59.7925 15.4456 59.2858 14.3084 59.2858 12.9544H58.6885C58.6885 14.4805 59.2689 15.7764 60.4163 16.8246L60.8192 16.3836ZM59.2858 12.9544C59.2858 11.7489 59.629 10.7803 60.2979 10.0241L59.8505 9.62829C59.07 10.5107 58.6885 11.6275 58.6885 12.9544H59.2858ZM60.3008 10.0207C60.9886 9.21969 61.8731 8.62738 62.963 8.24604L62.7657 7.68219C61.5849 8.09533 60.6093 8.7444 59.8476 9.63162L60.3008 10.0207ZM62.9684 8.24408C64.0699 7.8346 65.2183 7.6297 66.4155 7.6297V7.03233C65.1485 7.03233 63.9295 7.24949 62.7603 7.68415L62.9684 8.24408ZM66.4155 7.6297C67.9773 7.6297 69.3498 7.88504 70.5386 8.38814L70.7714 7.83802C69.4962 7.29837 68.0423 7.03233 66.4155 7.03233V7.6297ZM70.5386 8.38814C71.731 8.89276 72.6663 9.58429 73.3556 10.4581L73.8246 10.0881C73.0645 9.12462 72.043 8.37615 70.7714 7.83802L70.5386 8.38814ZM73.3627 10.4667C73.6601 10.816 73.7823 11.1652 73.7629 11.5232L74.3594 11.5554C74.3884 11.0195 74.1965 10.5246 73.8175 10.0795L73.3627 10.4667ZM73.763 11.5222C73.7445 11.844 73.5924 12.1286 73.2628 12.3827L73.6275 12.8558C74.0709 12.5141 74.3295 12.0787 74.3593 11.5563L73.763 11.5222ZM73.2728 12.3753C72.9618 12.5951 72.5875 12.6732 72.1231 12.5864L72.0133 13.1736C72.6118 13.2854 73.1555 13.1897 73.6175 12.8632L73.2728 12.3753ZM72.1231 12.5864C71.6442 12.4969 71.2514 12.2983 70.9342 11.9941L70.5207 12.4252C70.9283 12.8161 71.4293 13.0644 72.0133 13.1736L72.1231 12.5864ZM70.9373 11.997C70.305 11.3732 69.6133 10.9359 68.8615 10.6961L68.68 11.2652C69.3293 11.4723 69.9421 11.8543 70.5177 12.4222L70.9373 11.997ZM68.8615 10.6961C68.1254 10.4613 67.2844 10.3468 66.343 10.3468V10.9442C67.2374 10.9442 68.015 11.0531 68.68 11.2652L68.8615 10.6961ZM66.343 10.3468C65.2461 10.3468 64.2921 10.5389 63.4923 10.9367L63.7583 11.4715C64.4562 11.1245 65.3141 10.9442 66.343 10.9442V10.3468ZM63.4888 10.9384C63.0919 11.1424 62.7766 11.4031 62.5611 11.728C62.3443 12.0548 62.2396 12.43 62.2396 12.8427H62.8369C62.8369 12.5354 62.9134 12.2776 63.0589 12.0582C63.2057 11.8368 63.434 11.6382 63.7618 11.4698L63.4888 10.9384ZM62.2396 12.8427C62.2396 13.3405 62.3613 13.8025 62.6064 14.2223L63.1223 13.9211C62.9326 13.5961 62.8369 13.2387 62.8369 12.8427H62.2396ZM62.6191 14.2421C62.9076 14.6572 63.427 15.0076 64.1209 15.3133L64.3617 14.7666C63.7028 14.4764 63.3043 14.1813 63.1096 13.9012L62.6191 14.2421ZM64.1295 15.3169C64.8305 15.6 65.8413 15.8773 67.1514 16.1516L67.2738 15.5669C65.975 15.295 65.0049 15.0262 64.3531 14.763L64.1295 15.3169ZM67.1525 16.1518C68.9494 16.5212 70.3424 16.9853 71.3445 17.5362L71.6323 17.0127C70.557 16.4215 69.0994 15.9422 67.2728 15.5667L67.1525 16.1518ZM71.3471 17.5375C72.3783 18.0916 73.0915 18.7287 73.5147 19.4384L74.0278 19.1325C73.5331 18.3029 72.7244 17.5994 71.6298 17.0113L71.3471 17.5375ZM73.517 19.4422C73.9432 20.1337 74.1611 20.9469 74.1611 21.8923H74.7584C74.7584 20.8516 74.5173 19.9268 74.0256 19.1288L73.517 19.4422ZM74.1611 21.8923C74.1611 22.9785 73.8749 23.9514 73.3043 24.8193L73.8034 25.1475C74.4407 24.1781 74.7584 23.0903 74.7584 21.8923H74.1611ZM73.3013 24.824C72.757 25.6864 71.9351 26.384 70.8176 26.9104L71.0722 27.4508C72.2738 26.8848 73.1912 26.1176 73.8064 25.1428L73.3013 24.824ZM70.8154 26.9115C69.7323 27.4325 68.3548 27.7012 66.6691 27.7012V28.2986C68.4137 28.2986 69.8867 28.0211 71.0744 27.4498L70.8154 26.9115ZM86.3439 27.5523C85.1902 27.5523 84.1597 27.2567 83.2441 26.6686L82.9213 27.1712C83.9383 27.8245 85.0819 28.1496 86.3439 28.1496V27.5523ZM83.2486 26.6716C82.3272 26.056 81.5998 25.227 81.0661 24.1776L80.5336 24.4484C81.1111 25.5839 81.9056 26.4928 82.9168 27.1683L83.2486 26.6716ZM81.0661 24.1776C80.5341 23.1318 80.2651 21.95 80.2651 20.6261H79.6677C79.6677 22.0333 79.9543 23.3095 80.5336 24.4484L81.0661 24.1776ZM80.2651 20.6261V2.86206H79.6677V20.6261H80.2651ZM80.2651 2.86206C80.2651 2.38298 80.4109 2.01428 80.6878 1.72967L80.2597 1.31309C79.8602 1.72364 79.6677 2.24873 79.6677 2.86206H80.2651ZM80.6878 1.72967C80.9641 1.44572 81.3188 1.29868 81.7782 1.29868V0.701319C81.1747 0.701319 80.6598 0.901867 80.2597 1.31309L80.6878 1.72967ZM81.7782 1.29868C82.2376 1.29868 82.5923 1.44572 82.8686 1.72967L83.2968 1.31309C82.8966 0.901867 82.3818 0.701319 81.7782 0.701319V1.29868ZM82.8686 1.72967C83.1455 2.01428 83.2913 2.38298 83.2913 2.86206H83.8887C83.8887 2.24873 83.6962 1.72364 83.2968 1.31309L82.8686 1.72967ZM83.2913 2.86206V20.6261H83.8887V2.86206H83.2913ZM83.2913 20.6261C83.2913 21.6753 83.5733 22.5755 84.1531 23.3069L84.6212 22.9358C84.1382 22.3265 83.8887 21.5632 83.8887 20.6261H83.2913ZM84.1531 23.3069C84.7343 24.04 85.4691 24.4255 86.3439 24.4255V23.8281C85.6726 23.8281 85.1029 23.5433 84.6212 22.9358L84.1531 23.3069ZM86.3439 24.4255H87.5759V23.8281H86.3439V24.4255ZM87.5759 24.4255C87.918 24.4255 88.1978 24.5568 88.4336 24.8395L88.8923 24.4569C88.5484 24.0445 88.1034 23.8281 87.5759 23.8281V24.4255ZM88.4413 24.8484C88.6977 25.1321 88.8354 25.5036 88.8354 25.9889H89.4327C89.4327 25.3818 89.2563 24.8594 88.8846 24.448L88.4413 24.8484ZM88.8354 25.9889C88.8354 26.4488 88.6675 26.8117 88.3251 27.1016L88.711 27.5576C89.1899 27.1522 89.4327 26.6214 89.4327 25.9889H88.8354ZM88.3183 27.1075C87.9976 27.3959 87.5666 27.5523 86.9961 27.5523V28.1496C87.6818 28.1496 88.2655 27.9584 88.7178 27.5517L88.3183 27.1075ZM86.9961 27.5523H86.3439V28.1496H86.9961V27.5523ZM78.2996 11.1289C77.8547 11.1289 77.5223 11.0003 77.2731 10.764L76.862 11.1973C77.241 11.5569 77.7299 11.7262 78.2996 11.7262V11.1289ZM77.2731 10.764C77.0207 10.5245 76.8952 10.2314 76.8952 9.86342H76.2978C76.2978 10.3893 76.4864 10.841 76.862 11.1973L77.2731 10.764ZM76.8952 9.86342C76.8952 9.43562 77.0275 9.12144 77.2731 8.88838L76.862 8.45501C76.4796 8.81782 76.2978 9.29811 76.2978 9.86342H76.8952ZM77.2731 8.88838C77.5223 8.65204 77.8547 8.52349 78.2996 8.52349V7.92612C77.7299 7.92612 77.241 8.09549 76.862 8.45501L77.2731 8.88838ZM78.2996 8.52349H86.67V7.92612H78.2996V8.52349ZM86.67 8.52349C87.1149 8.52349 87.4473 8.65205 87.6965 8.88838L88.1076 8.45501C87.7286 8.09549 87.2397 7.92612 86.67 7.92612V8.52349ZM87.6965 8.88838C87.9421 9.12144 88.0744 9.43562 88.0744 9.86342H88.6718C88.6718 9.29812 88.49 8.81782 88.1076 8.45501L87.6965 8.88838ZM88.0744 9.86342C88.0744 10.2314 87.9489 10.5245 87.6965 10.764L88.1076 11.1973C88.4832 10.841 88.6718 10.3893 88.6718 9.86342H88.0744ZM87.6965 10.764C87.4473 11.0003 87.1149 11.1289 86.67 11.1289V11.7262C87.2397 11.7262 87.7286 11.5569 88.1076 11.1973L87.6965 10.764ZM86.67 11.1289H78.2996V11.7262H86.67V11.1289ZM102.989 27.7012C101.029 27.7012 99.292 27.2768 97.7711 26.4351L97.4818 26.9578C99.1013 27.854 100.94 28.2986 102.989 28.2986V27.7012ZM97.776 26.4379C96.2749 25.5701 95.0925 24.3909 94.225 22.8968L93.7084 23.1968C94.6284 24.7813 95.886 26.0353 97.477 26.955L97.776 26.4379ZM94.2277 22.9017C93.3857 21.3872 92.9609 19.6507 92.9609 17.6841H92.3635C92.3635 19.7395 92.8084 21.5782 93.7056 23.192L94.2277 22.9017ZM92.9609 17.6841C92.9609 15.6891 93.363 13.9513 94.1577 12.4619L93.6307 12.1807C92.7827 13.77 92.3635 15.6074 92.3635 17.6841H92.9609ZM94.1569 12.4634C94.9777 10.9451 96.0996 9.76922 97.5245 8.92898L97.2211 8.41442C95.6988 9.3121 94.5017 10.5693 93.6314 12.1793L94.1569 12.4634ZM97.5277 8.92708C98.9497 8.06459 100.586 7.6297 102.446 7.6297V7.03233C100.489 7.03233 98.7431 7.49123 97.2179 8.41632L97.5277 8.92708ZM102.446 7.6297C104.283 7.6297 105.843 8.05273 107.14 8.88576L107.463 8.38316C106.054 7.47826 104.377 7.03233 102.446 7.03233V7.6297ZM107.143 8.88785C108.444 9.69975 109.433 10.8335 110.11 12.2978L110.652 12.047C109.929 10.4823 108.864 9.25744 107.459 8.38106L107.143 8.88785ZM110.113 12.303C110.814 13.7452 111.17 15.4246 111.17 17.3489H111.767C111.767 15.3505 111.398 13.5789 110.65 12.0417L110.113 12.303ZM111.17 17.3489C111.17 17.7469 111.04 18.0682 110.783 18.3323L111.211 18.7489C111.583 18.3675 111.767 17.8943 111.767 17.3489H111.17ZM110.792 18.3239C110.54 18.563 110.218 18.6888 109.802 18.6888V19.2862C110.352 19.2862 110.827 19.1142 111.203 18.7573L110.792 18.3239ZM109.802 18.6888H95.1987V19.2862H109.802V18.6888ZM95.4974 18.9875V16.0082H94.9V18.9875H95.4974ZM95.1987 16.3069H109.693V15.7095H95.1987V16.3069ZM109.521 15.7638L108.036 16.8065L108.379 17.2955L109.865 16.2527L109.521 15.7638ZM108.506 17.0452C108.481 15.7682 108.232 14.6207 107.752 13.6086L107.213 13.8644C107.651 14.7889 107.885 15.851 107.909 17.0568L108.506 17.0452ZM107.754 13.6112C107.274 12.5724 106.587 11.7465 105.693 11.1428L105.359 11.6378C106.156 12.1762 106.774 12.9145 107.211 13.8618L107.754 13.6112ZM105.693 11.1428C104.79 10.5327 103.702 10.2351 102.446 10.2351V10.8324C103.605 10.8324 104.571 11.1059 105.359 11.6378L105.693 11.1428ZM102.446 10.2351C101.023 10.2351 99.782 10.5563 98.7361 11.2117L99.0533 11.7179C99.9883 11.1319 101.115 10.8324 102.446 10.8324V10.2351ZM98.7333 11.2135C97.717 11.8663 96.9434 12.7675 96.4134 13.9086L96.9552 14.1602C97.4399 13.1166 98.1399 12.3046 99.0561 11.7161L98.7333 11.2135ZM96.4146 13.9062C95.8855 15.0197 95.6247 16.2811 95.6247 17.6841H96.2221C96.2221 16.356 96.4686 15.1844 96.9541 14.1626L96.4146 13.9062ZM95.6247 17.6841C95.6247 19.0952 95.9372 20.3634 96.5693 21.4808L97.0892 21.1867C96.5135 20.1689 96.2221 19.004 96.2221 17.6841H95.6247ZM96.5693 21.4808C97.1993 22.5945 98.0706 23.4768 99.1789 24.1241L99.4802 23.6082C98.4627 23.0141 97.6671 22.2081 97.0892 21.1867L96.5693 21.4808ZM99.1789 24.1241C100.293 24.7745 101.566 25.0958 102.989 25.0958V24.4985C101.659 24.4985 100.492 24.1991 99.4802 23.6082L99.1789 24.1241ZM102.989 25.0958C103.775 25.0958 104.57 24.9525 105.372 24.6691L105.173 24.1059C104.429 24.3688 103.701 24.4985 102.989 24.4985V25.0958ZM105.377 24.6673C106.192 24.3627 106.861 24.0148 107.375 23.6186L107.01 23.1454C106.558 23.494 105.947 23.8165 105.168 24.1077L105.377 24.6673ZM107.372 23.6205C107.689 23.3821 108.013 23.271 108.352 23.271V22.6737C107.87 22.6737 107.421 22.8357 107.013 23.1435L107.372 23.6205ZM108.369 23.2705C108.73 23.2499 109.027 23.3507 109.28 23.5701L109.671 23.1194C109.296 22.7926 108.844 22.6451 108.335 22.6741L108.369 23.2705ZM109.275 23.566C109.642 23.8989 109.811 24.2393 109.829 24.5898L110.426 24.5576C110.397 24.0143 110.13 23.5354 109.676 23.1235L109.275 23.566ZM109.829 24.5898C109.847 24.9223 109.712 25.2192 109.363 25.4934L109.733 25.963C110.205 25.5917 110.456 25.1189 110.426 24.5576L109.829 24.5898ZM109.359 25.4968C108.571 26.1403 107.577 26.6711 106.371 27.0843L106.565 27.6494C107.823 27.2184 108.883 26.6568 109.737 25.9596L109.359 25.4968ZM106.369 27.0849C105.189 27.4975 104.062 27.7012 102.989 27.7012V28.2986C104.139 28.2986 105.332 28.0803 106.566 27.6488L106.369 27.0849ZM118.257 15.1144C118.257 13.6737 118.595 12.3995 119.265 11.2834L118.753 10.9759C118.022 12.1935 117.659 13.5759 117.659 15.1144H118.257ZM119.264 11.2848C119.963 10.136 120.892 9.22823 122.057 8.55815L121.759 8.04042C120.507 8.76068 119.504 9.7398 118.754 10.9744L119.264 11.2848ZM122.057 8.55815C123.217 7.89014 124.494 7.55521 125.894 7.55521V6.95785C124.394 6.95785 123.014 7.3181 121.759 8.04042L122.057 8.55815ZM125.894 7.55521C127.319 7.55521 128.32 7.80139 128.946 8.24503L129.291 7.75768C128.516 7.20822 127.367 6.95785 125.894 6.95785V7.55521ZM128.956 8.25168C129.288 8.46828 129.494 8.69186 129.602 8.91409C129.707 9.13052 129.731 9.36799 129.662 9.6414L130.242 9.78751C130.342 9.39058 130.312 9.00736 130.139 8.65276C129.969 8.30395 129.673 8.00616 129.282 7.75103L128.956 8.25168ZM129.66 9.65349C129.597 9.95258 129.478 10.165 129.316 10.3132L129.719 10.7543C129.991 10.5052 130.162 10.1715 130.244 9.77542L129.66 9.65349ZM129.317 10.3117C129.167 10.4473 128.988 10.5353 128.774 10.5753L128.884 11.1625C129.201 11.1032 129.481 10.9678 129.717 10.7558L129.317 10.3117ZM128.774 10.5753C128.556 10.616 128.309 10.6078 128.028 10.5411L127.89 11.1223C128.237 11.2046 128.57 11.2212 128.884 11.1625L128.774 10.5753ZM128.02 10.5393C126.443 10.21 125.01 10.1813 123.727 10.4656L123.857 11.0488C125.038 10.7869 126.383 10.8079 127.898 11.1241L128.02 10.5393ZM123.727 10.4656C122.451 10.7486 121.416 11.281 120.643 12.0758L121.071 12.4924C121.747 11.7975 122.669 11.312 123.857 11.0488L123.727 10.4656ZM120.639 12.0795C119.88 12.8863 119.507 13.906 119.507 15.1144H120.105C120.105 14.0388 120.432 13.1715 121.074 12.4887L120.639 12.0795ZM119.806 14.8158H117.958V15.4131H119.806V14.8158ZM117.994 27.5523C117.464 27.5523 117.101 27.4168 116.859 27.1874L116.448 27.6207C116.834 27.9871 117.365 28.1496 117.994 28.1496V27.5523ZM116.868 27.1958C116.626 26.9471 116.481 26.5617 116.481 25.9889H115.884C115.884 26.6575 116.053 27.2155 116.439 27.6123L116.868 27.1958ZM116.481 25.9889V9.34204H115.884V25.9889H116.481ZM116.481 9.34204C116.481 8.79804 116.624 8.42323 116.868 8.1724L116.439 7.75583C116.055 8.15052 115.884 8.69432 115.884 9.34204H116.481ZM116.868 8.1724C117.11 7.92282 117.471 7.77866 117.994 7.77866V7.1813C117.358 7.1813 116.825 7.35989 116.439 7.75583L116.868 8.1724ZM117.994 7.77866C118.548 7.77866 118.899 7.92573 119.113 8.16369L119.557 7.76454C119.191 7.35699 118.649 7.1813 117.994 7.1813V7.77866ZM119.129 8.1808C119.362 8.40158 119.507 8.76724 119.507 9.34204H120.105C120.105 8.67546 119.936 8.12252 119.541 7.74743L119.129 8.1808ZM119.507 9.34204V25.9889H120.105V9.34204H119.507ZM119.507 25.9889C119.507 26.5329 119.365 26.9077 119.121 27.1585L119.549 27.5751C119.933 27.1804 120.105 26.6366 120.105 25.9889H119.507ZM119.113 27.1672C118.899 27.4052 118.548 27.5523 117.994 27.5523V28.1496C118.649 28.1496 119.191 27.9739 119.557 27.5664L119.113 27.1672Z" fill="#219653" mask="url(#path-2-outside-1)"/>
<path d="M188 31C188 44.8071 176.807 56 163 56C149.193 56 138 44.8071 138 31C138 17.1929 149.193 6 163 6C176.807 6 188 17.1929 188 31Z" fill="#219653"/>
<path d="M147.985 40.9492L147.991 40.9558L147.998 40.9623C148.363 41.3341 148.824 41.5217 149.347 41.5217H159.119C159.642 41.5217 160.103 41.3341 160.468 40.9623C160.828 40.5959 161.014 40.1421 161.014 39.6287C161.014 39.1286 160.825 38.6878 160.474 38.328C160.113 37.9387 159.65 37.7357 159.119 37.7357H152.865L158.167 31.6077L158.168 31.6064C158.553 31.1582 158.926 30.6574 159.288 30.105C159.677 29.5381 159.994 28.9412 160.237 28.3148C160.505 27.6692 160.644 27.0207 160.644 26.3726C160.644 25.0002 160.386 23.786 159.848 22.7477C159.33 21.7132 158.584 20.9029 157.615 20.3305C156.641 19.7557 155.507 19.4783 154.233 19.4783C152.968 19.4783 151.81 19.7774 150.774 20.3831L150.774 20.3831L150.77 20.3853C149.758 20.9883 148.955 21.8165 148.365 22.861C147.77 23.8983 147.478 25.0737 147.478 26.3726C147.478 26.8754 147.669 27.3184 148.024 27.6793L148.024 27.6793C148.384 28.0459 148.834 28.2387 149.347 28.2387C149.867 28.2387 150.325 28.0524 150.676 27.6729C151.027 27.3132 151.216 26.8725 151.216 26.3726C151.216 25.7517 151.348 25.1999 151.604 24.7073C151.882 24.1896 152.245 23.7927 152.693 23.5038L152.693 23.5038L152.697 23.5014C153.156 23.2002 153.663 23.0492 154.233 23.0492C155.121 23.0492 155.766 23.3454 156.235 23.9096L156.235 23.9097L156.24 23.9155C156.738 24.4971 157.013 25.2978 157.013 26.3726C157.013 26.7687 156.895 27.2128 156.626 27.7116L156.626 27.7115L156.62 27.7231C156.361 28.2338 155.981 28.7919 155.471 29.3977L155.471 29.3981L147.982 38.3108C147.639 38.6691 147.478 39.123 147.478 39.6287C147.478 40.1311 147.647 40.5808 147.985 40.9492ZM163.685 36.7624H171.958V39.6287C171.958 40.1311 172.128 40.5808 172.465 40.9492C172.807 41.3215 173.244 41.5217 173.748 41.5217C174.271 41.5217 174.731 41.3332 175.083 40.9492C175.421 40.5808 175.59 40.1311 175.59 39.6287V36.7624H176.653C177.143 36.7624 177.585 36.604 177.949 36.2824L177.956 36.276L177.963 36.2694C178.323 35.9276 178.522 35.4982 178.522 35.0038C178.522 34.4497 178.362 33.9201 177.897 33.6042C177.533 33.3574 177.11 33.2453 176.653 33.2453H175.59V21.3982C175.59 20.8954 175.441 20.4395 175.122 20.0652C174.789 19.6737 174.341 19.4783 173.827 19.4783C173.513 19.4783 173.214 19.5532 172.94 19.7052L172.93 19.7105L172.921 19.7161C172.687 19.8593 172.483 20.0462 172.308 20.2692L172.307 20.2691L172.3 20.2787L162.185 33.7768L162.185 33.7767L162.179 33.7847C161.914 34.1529 161.794 34.5754 161.817 35.0308L161.818 35.0456L161.82 35.0604C161.867 35.4984 162.049 35.8872 162.349 36.2158C162.696 36.596 163.164 36.7624 163.685 36.7624ZM166.866 33.2453L171.958 26.4356V33.2453H166.866Z" fill="#FEFEFE" stroke="#FEFEFE" stroke-width="1.04341"/>
</svg>
